<?xml version="1.0" encoding="UTF-8"?>
<svg xmlns="http://www.w3.org/2000/svg" version="1.1" viewBox="0 0 750 500">
  <defs>
    <style>
      .cls-1 {
        fill: #3c32a1;
      }

      .cls-2 {
        fill: #c41c27;
      }

      .cls-3 {
        fill: #cf6a53;
      }

      .cls-4 {
        fill: #4b547a;
      }

      .cls-5 {
        fill: #59bbee;
      }

      .cls-6 {
        fill: #c01c27;
      }

      .cls-7 {
        fill: #59647a;
      }

      .cls-8 {
        fill: #518e4b;
      }

      .cls-9 {
        opacity: 0;
      }

      .cls-10 {
        fill: #911127;
      }

      .cls-11 {
        fill: #9b4937;
      }

      .cls-12 {
        fill: #9b422d;
      }

      .cls-13 {
        fill: #65272b;
      }

      .cls-14 {
        fill: #7e7768;
      }

      .cls-15 {
        fill: #584cdc;
      }

      .cls-16 {
        fill: #42486b;
      }

      .cls-17 {
        fill: #dc8d30;
      }

      .cls-18 {
        fill: #ae6317;
      }

      .cls-19 {
        fill: #f7ffff;
      }

      .cls-20 {
        opacity: .5;
      }

      .cls-21 {
        fill: #7373fa;
      }

      .cls-22 {
        fill: #305320;
      }
    </style>
  </defs>
  <!-- Generator: Adobe Illustrator 28.7.1, SVG Export Plug-In . SVG Version: 1.2.0 Build 142)  -->
  <g>
    <g id="BACKGROUND">
      <g class="cls-9">
        <rect class="cls-5" width="750" height="500"/>
      </g>
    </g>
    <g id="OBJECTS">
      <g>
        <ellipse cx="170.7" cy="452.88" rx="106.72" ry="6.03"/>
        <g>
          <g>
            <rect x="81.26" y="297.5" width="75.04" height="1" transform="translate(-198.64 344.4) rotate(-76.58)"/>
            <rect x="115.89" y="305.75" width="74.48" height="1" transform="translate(-180.09 384.98) rotate(-76.73)"/>
            <path d="M87.88,440.6c-.78,3.38-4.15,5.48-7.53,4.7-3.38-.78-5.48-4.15-4.7-7.53.78-3.38,4.15-5.48,7.53-4.7,3.38.78,5.48,4.15,4.7,7.53Z"/>
            <path d="M128.42,449.99c-.78,3.38-4.15,5.48-7.53,4.7-3.38-.78-5.48-4.15-4.7-7.53.78-3.38,4.15-5.48,7.53-4.7s5.48,4.15,4.7,7.53Z"/>
            <rect x="69.76" y="354.56" width="108.02" height="77.84" rx="5.46" ry="5.46" transform="translate(-287.49 425.24) rotate(-76.95)"/>
            <path class="cls-19" d="M167.66,353.81l-21.92,94.59c-.57,2.45-2.62,4.18-4.98,4.45l-1.9-.44.08-.33c2.75.64,5.51-1.08,6.14-3.83l21.92-94.59c.64-2.75-1.08-5.51-3.83-6.15l.08-.33,1.9.44c2,1.29,3.08,3.74,2.52,6.19Z"/>
            <path class="cls-2" d="M128.58,264.25l1.07-4.63c.3-1.29,1.59-2.1,2.88-1.8l26.48,6.14c1.29.3,2.1,1.59,1.8,2.88l-1.07,4.63,3.1.72,1.07-4.63c.7-3-1.18-6.01-4.18-6.71l-26.48-6.14c-3-.7-6.01,1.18-6.71,4.18l-1.07,4.63,3.1.72Z"/>
            <path class="cls-2" d="M161.66,347.63l-24.02,103.68c-.1.43-.53.7-.95.6l-4.98-1.15-.73-.17-63.28-14.66-.73-.17-4.56-1.06c-.43-.1-.7-.53-.6-.95l24.03-103.68c.1-.43.53-.69.95-.59l4.56,1.06.73.17,63.28,14.66.73.17,4.97,1.15c.43.1.7.53.6.96Z"/>
            <polygon points="92.08 330.69 67.69 435.93 66.96 435.76 91.35 330.52 92.08 330.69"/>
            <rect x="89.52" y="397.68" width="108.02" height=".75" transform="translate(-276.65 448.03) rotate(-76.95)"/>
            <rect class="cls-19" x="111.87" y="349.71" width=".68" height="77.84" transform="translate(-291.72 410.22) rotate(-76.95)"/>
            <polygon class="cls-19" points="119.4 397.42 101.88 393.36 103.45 386.6 104.11 386.75 102.7 392.85 118.89 396.6 120.31 390.5 120.97 390.66 119.4 397.42"/>
            <rect x="86.49" y="380.05" width="8.65" height="7.39" transform="translate(-303.53 385.59) rotate(-76.95)"/>
            <rect x="129.36" y="389.98" width="8.65" height="7.39" transform="translate(-280.01 435.05) rotate(-76.95)"/>
          </g>
          <path class="cls-18" d="M242.45,101.4c-3.08,6.21-18.27,4.94-33.92-2.83-15.65-7.77-25.83-19.11-22.75-25.31,3.08-6.21,18.27-4.94,33.92,2.83,15.65,7.77,25.83,19.11,22.75,25.31Z"/>
          <path d="M213.36,76.07s-8.03-4.17-14.01,4.42-4.08,28.77-18.7,46.54l35.53,1.55s8.55-14,12.05-24.7c4-12.21,5.76-23.39-3.51-27.26-5.48-2.29-11.36-.54-11.36-.54Z"/>
          <path class="cls-6" d="M192.07,126.86s-18.79-2.1-24.83,4.04-15.85,43.83-12.16,66.18c2.32,14.05,32.15,12.07,32.15,12.07l4.84-82.29Z"/>
          <path d="M162.81,138.55c4.03,2.02,8.48,2.88,12.97,2.48.48-.04.48-.79,0-.75-4.36.39-8.68-.41-12.59-2.37-.43-.22-.81.43-.38.65h0Z"/>
          <path class="cls-10" d="M163.29,170.93c.35-4.01-2.89-7.43-6.91-7.24-2,.1-3.85.67-4.56,2.27-1.83,4.17-4.67,22.85-2.67,25.34,1.02,1.28,3.4,1.99,5.48,2.38,2.07.39,4.09-.88,4.65-2.91,1.27-4.65,3.43-13.21,4.01-19.85Z"/>
          <path class="cls-17" d="M157.38,161.93c-2.8-.43-5.53,1.1-6.6,3.72-.87,2.13-1.8,4.89-1.55,6.44.46,2.76,13.17,4.41,14.08,3.32s2.08-6.89,0-10.3c-1.07-1.76-3.55-2.81-5.93-3.18Z"/>
          <g>
            <path class="cls-17" d="M171.55,113.19l33.85,2.41s1.78,13.09-.78,17.95l-37.85-1.32,4.77-19.04Z"/>
            <path d="M191.14,115.09s-.02,0-.04,0l-15.36-1.1c-.28-.02-.48-.26-.46-.53.02-.28.26-.48.53-.46l15.36,1.1c.28.02.48.26.46.53-.02.26-.24.46-.5.46Z"/>
            <path d="M176.05,124.59c-1.44,5.23-5.58,8.65-9.26,7.64-3.68-1.01-5.49-6.07-4.06-11.3,1.44-5.23,5.58-8.65,9.26-7.64,3.68,1.01,5.49,6.07,4.06,11.3Z"/>
          </g>
          <path class="cls-19" d="M201.04,108.37s-.04,0-.06,0l-5.56-1.03c-.1-.02-.19-.09-.23-.18-.04-.1-.03-.21.03-.29l3.98-6.07c.07-.11.19-.16.32-.14.12.02.22.12.25.24l1.58,7.1c.02.1,0,.21-.08.28-.06.06-.14.1-.22.1ZM196,106.8l4.63.86-1.31-5.92-3.32,5.06Z"/>
          <g>
            <path class="cls-3" d="M237.49,155.4s5.09,30.77,7.12,39.43c1.84,7.83,19.8,48.56,19.8,48.56l-7.55,2.86s-22.64-34.91-25.4-39.74c-2.76-4.83-9.26-48.82-9.26-48.82l15.29-2.3Z"/>
            <path class="cls-11" d="M239.56,198.31c1.53-1.08,3.19-1.86,4.99-2.34.23-.06.13-.42-.1-.36-1.83.49-3.53,1.29-5.08,2.38-.2.14,0,.46.19.32h0Z"/>
            <path class="cls-3" d="M256.99,244.57s-1.5,3.38-1.12,6.12,2,7.87,3.25,8,.12-5,1.75-5.88,5.75,3.5,6.37,4.75,1.87,7.88,3.62,8.25.75-4.38.75-4.38c0,0,1.44-5.62.28-9.12s-8.4-11-8.4-11l-6.51,3.26Z"/>
            <path class="cls-11" d="M271.85,261.15c-.24-2.98-1.27-5.75-3.02-8.17-.14-.19-.47,0-.32.19,1.72,2.36,2.73,5.07,2.97,7.98.02.24.39.24.37,0h0Z"/>
            <path class="cls-11" d="M270.39,253.76c.83,1.27,1.35,2.65,1.56,4.15.03.24.39.14.36-.1-.21-1.53-.75-2.95-1.6-4.24-.13-.2-.46-.01-.32.19h0Z"/>
            <path class="cls-15" d="M226.2,124.86s5.09,2.21,7.36,10.86c2.26,8.65,5.68,21.02,5.68,21.02l-12.62,3.74-.42-35.61Z"/>
            <path d="M237.68,152.6c-2.1.72-4.19,1.46-6.21,2.38-.44.2-.82-.45-.38-.65,2.08-.94,4.23-1.71,6.39-2.45.46-.16.66.57.2.73h0Z"/>
          </g>
          <g>
            <g>
              <path class="cls-3" d="M203.63,412.27h13.26c-.82,10.42-2.56,19.99-2.47,24.67,0,0-3.03,6.86-9.4-.17,0,0-.82-16.07-1.39-24.5Z"/>
              <path d="M220.53,423.89l-21.25-.51c-1.66-25.53-2.64-60.69,1.98-72.49,0,0-2.19-15.19-3.37-31.76-1.91-26.74,4.63-72.55,4.63-72.55l26.19-44.91s12,33.84-2.48,146.97c0,0-3.66,37.88-5.7,75.24Z"/>
              <path class="cls-19" d="M220.63,419.15c-7.15.22-14.3.05-21.43-.5-.48-.04-.48-.79,0-.75,7.13.55,14.28.72,21.43.5.49-.01.48.74,0,.75h0Z"/>
              <path class="cls-16" d="M202.11,319.24c.36,6,1.16,11.98,1.89,17.94.35,2.84.71,5.69,1.07,8.53.16,1.21.44,2.48.43,3.69-.02,2.97-.47,5.99-.67,8.95-.25,3.68-.47,7.36-.66,11.04-.44,8.23-.76,16.46-.89,24.69-.13,8.16-.16,16.37.6,24.49.05.48-.71.48-.75,0-.66-7.06-.7-14.18-.64-21.26.07-8.26.36-16.52.77-24.77.35-7.02.77-14.03,1.32-21.03.12-1.54.13-2.75-.06-4.25-.33-2.51-.65-5.02-.96-7.54-.85-6.81-1.79-13.64-2.21-20.49-.03-.48.73-.48.75,0h0Z"/>
              <g>
                <path class="cls-8" d="M239.37,452.88h-34.91s-.5-5.17-.95-9.78c-.29-3-.55-5.76-.64-6.71-.21-2.41,3.21.6,3.21.6l5.22.7s.25-1.34,2.16-1.85c.81-.22,1.66-.2,2.47.03,3.4.96,3.42,4.74,3.42,4.74,0,0,10.66,3.82,13.54,4.02,2.56.18,4.83,1.63,6.06,6.31.16.59.29,1.23.42,1.93Z"/>
                <path class="cls-19" d="M222.06,441.69c-1.22-.06-2.33.52-2.97,1.56-.17.28-.61.02-.44-.26.73-1.18,2.01-1.87,3.4-1.81.33.02.33.52,0,.51h0Z"/>
                <path class="cls-19" d="M224.3,442.31c-1.22-.06-2.33.52-2.97,1.56-.17.28-.61.02-.44-.26.73-1.18,2.01-1.87,3.4-1.81.33.02.33.52,0,.51h0Z"/>
                <path class="cls-19" d="M226.4,443.16c-1.22-.06-2.33.52-2.97,1.56-.17.28-.61.02-.44-.26.73-1.18,2.01-1.87,3.4-1.81.33.02.33.52,0,.51h0Z"/>
                <path class="cls-22" d="M217.78,438.21c0,.79-1.02,1.44-2.28,1.44s-2.28-.64-2.28-1.44,1.02-1.44,2.28-1.44,2.28.64,2.28,1.44Z"/>
                <path class="cls-19" d="M239.37,452.88h-34.91s-.5-5.17-.95-9.78c.53-.27,3.28-.62,5.46,1.52,2.52,2.46,2.2,4.39,5.35,3.87,3.14-.53,5.19-2.46,8.65-.7,2.75,1.4,4.09,3.16,4.09,3.16h11.9c.16.59.29,1.23.42,1.93Z"/>
              </g>
            </g>
            <g>
              <path class="cls-22" d="M159.32,423.15s1.33,1.11.39,4.15c-.95,3.04-2.54,7.57-2.54,7.57l-3.22-5.15,1.99-7.22,3.39.65Z"/>
              <path class="cls-3" d="M151.89,412.27h12.27c-3.4,7.78-5.61,12.84-5.61,12.84,0,0-5.9,5-8.72,2.37l1.17-7.85s.34-2.86.89-7.36Z"/>
              <path d="M224.6,184.3s8.47,16.52,6.69,50.66c0,0-8.29,8.85-30.23,8.6-21.94-.25-28.75,4.27-28.75,4.27,0,0-1.73-32.23,2.54-44.03,4.27-11.79,12.76-13.99,15.31-21.56,1.67,2.36,28.13,7.26,34.44,2.06Z"/>
              <path class="cls-16" d="M221.9,214.07c-1.8,6.68,1.97,13.55,8.58,15.58.46.14.27.87-.2.73-7-2.15-11.02-9.43-9.11-16.51.13-.47.85-.27.73.2h0Z"/>
              <path d="M167.73,416.95c-6.56.62-13.03.4-19.42-.72,3.84-24.38,9.52-49.79,11.06-56.33,2.55-10.82,13.18-37.57,13.18-37.57,0,0-1.91-73.71.02-89.31,1.93-15.6,34.94,5.01,34.94,5.01,0,0-3.9,83.48-8.19,93.6-2.83,6.65-18.54,50.63-31.59,85.32Z"/>
              <path class="cls-19" d="M169.13,412.28c-6.42.54-13.13.16-19.47-1.03-.48-.09-.27-.82.2-.73,6.26,1.18,12.91,1.54,19.27,1,.48-.04.48.71,0,.75h0Z"/>
              <path class="cls-16" d="M192.59,213.97c.53,5.27-1.44,10.69-5.37,14.27-3.87,3.53-9.27,5-14.41,4.13-.48-.08-.28-.81.2-.73,4.99.85,10.29-.68,13.96-4.2,3.61-3.46,5.36-8.52,4.86-13.47-.05-.48.71-.48.75,0h0Z"/>
              <path class="cls-16" d="M207.35,242.14c-1.26,23.43-1.14,46.98-4.23,70.27-.86,6.49-1.98,12.94-3.44,19.32-.11.47-.84.27-.73-.2,5.22-22.89,5.96-46.44,6.81-69.81.24-6.53.48-13.06.83-19.58.03-.48.78-.49.75,0h0Z"/>
              <g>
                <path class="cls-8" d="M158.61,426.51s.17,3.54.17,6.19-1.06,5.13-1.06,5.13c0,0,1.47,12.79-1.22,15.59-2.69,2.8-10.2,1.01-12.77.45-2.57-.56-2.69-5.46-.56-9.4,2.13-3.93,2.51-5.56,3.78-8.89,1.26-3.33,2.99-6.33,2.96-8.24-.01-1.27-.32-3.72,3.57-3.42,2.69.21,4.75,1.11,5.13,2.59Z"/>
                <path class="cls-19" d="M154.74,433.91c-1.32-1.02-3.07-1.19-4.56-.46-.32.16-.6-.32-.28-.48,1.74-.86,3.71-.64,5.23.54.28.22-.11.6-.39.39h0Z"/>
                <path class="cls-19" d="M154.25,436.13c-1.32-1.02-3.07-1.19-4.56-.46-.32.16-.6-.32-.28-.48,1.74-.86,3.71-.64,5.23.54.28.22-.11.6-.39.39h0Z"/>
                <path class="cls-19" d="M153.55,438.69c-1.32-1.02-3.07-1.19-4.56-.46-.32.16-.6-.32-.28-.48,1.74-.86,3.71-.64,5.23.54.28.22-.11.6-.39.39h0Z"/>
                <path class="cls-22" d="M156.51,427.34c-.12.85-1.31,1.39-2.67,1.21-1.36-.19-2.36-1.03-2.24-1.88.12-.85,1.31-1.39,2.67-1.21,1.36.19,2.36,1.03,2.24,1.88Z"/>
                <path class="cls-19" d="M158.77,433.26s.82,2.72,0,4.92c-.82,2.19.25,7.19.02,11.31-.23,4.12-.8,5.64-4.8,6.22-4,.57-10.24.68-12.3-2.1-1.66-2.24.13-5.14.13-5.14,0,0-.77,2.13,2.02,3.15,1.67.61,1.76-1.72,5-1.51,1.9.13,1.86,2.46,5.25,2.37,2.27-.06,3.33-2.61,2.56-5.36-.76-2.75,1.08-9.28,1.08-9.28l1.04-4.57Z"/>
              </g>
              <path class="cls-16" d="M191.42,350.45c-3.92.67-7.93-.32-11.1-2.72-.32-.24.07-.72.38-.48,3.05,2.31,6.88,3.24,10.65,2.59.39-.07.46.54.07.61h0Z"/>
            </g>
          </g>
          <path class="cls-16" d="M207.43,239.3c.25,0,.46-.21.46-.46v-20.61c0-.25-.2-.46-.46-.46s-.46.21-.46.46v20.61c0,.25.21.46.46.46Z"/>
          <path class="cls-16" d="M209.95,229.71c.73,0,1.47-.22,2.02-.88,1.39-1.7.68-10.55.59-11.55-.02-.25-.24-.44-.5-.42-.25.02-.44.24-.42.5.31,3.65.48,9.83-.39,10.89-1.05,1.29-3.59-.1-3.61-.11-.22-.12-.5-.04-.62.18-.12.22-.04.5.18.62.08.05,1.41.77,2.75.77Z"/>
          <g>
            <path class="cls-15" d="M169.17,207.68c8.8,13.6,56.61,17.11,65.25,0l-5.38-38.94s-.96-3.46,1.71-9.29c.07-.14.13-.29.18-.43,2.21-5.73-2.95-12.31-.63-19.47.02-.07.05-.15.07-.22.08-.27.15-.53.22-.78,1.71-6.81-2.16-11.62-4.39-13.68h0c-.85-.78-2.43-1.68-4.34-2.59-.25-.12-.51-.24-.77-.36-5.7-2.61-13.59-5.17-13.59-5.17,0,0-13.41,4.07-19.68,6.01-6.26,1.94-8.07,10.52-5.48,21.75,1.13,4.9.93,13.84-1.49,25.25-3.14,14.76-11.69,37.91-11.69,37.91Z"/>
            <path class="cls-21" d="M201.17,149.79c8.24,1.08,13.72,9.14,11.78,17.21-.11.47.61.67.72.2,2.07-8.59-3.77-17.01-12.5-18.16-.48-.06-.47.69,0,.75h0Z"/>
            <path class="cls-21" d="M200.6,136.27c3.99-.55,6.79,2.99,8.51,6.08,1.58,2.83,2.96,5.7,5.48,7.84,4.25,3.6,10.2,4.95,15.56,3.39.46-.13.27-.86-.2-.72-6.01,1.75-12.9-.33-16.83-5.25-3.47-4.34-5.51-13.06-12.72-12.05-.48.07-.27.79.2.72h0Z"/>
            <g>
              <path class="cls-21" d="M182.81,156.73c2.73.08,5.43-.5,7.9-1.74,5.54-2.78,8.97-8.76,8.74-14.94-.22-5.92-3.95-11.32-9.26-13.86-.44-.21-.82.44-.38.65,6.66,3.17,10.3,10.7,8.35,17.87-1.87,6.88-8.32,11.47-15.29,11.27-.02.25-.04.49-.06.74Z"/>
              <path d="M231.17,139.96c-.93,3.07-1.09,6.31-.32,9.44.66,2.67,1.97,5.22,1.29,8.03-.11.47-.84.27-.73-.2.76-3.16-1.18-6.28-1.63-9.37-.39-2.72-.14-5.47.66-8.1.14-.46.87-.27.73.2h0Z"/>
              <path class="cls-21" d="M218.93,212.57c.36.32.9-.21.53-.53-7.28-6.51-4.08-17.95,1.02-24.76,2.58-3.45,6.13-6.15,10.07-7.61l-.12-.82c-6.26,2.22-11.08,7.43-13.75,13.45-2.91,6.55-3.58,15.08,2.25,20.28Z"/>
              <path class="cls-21" d="M179.47,175.61c3.46,1.66,7.42,2.51,11.15,2.91,5.29.57,10.52-.05,15.63-1.44,7.33-1.98,15.74-5.39,23.41-3.91l-.1-.72c-2.23-.4-4.53-.44-6.79-.23-4.81.44-9.42,2-14.02,3.37-5.03,1.49-10.09,2.57-15.37,2.38-4.61-.17-9.5-1.08-13.71-3.11-.07.25-.13.51-.2.76Z"/>
              <path class="cls-21" d="M179.29,179.56c6.49.06,12.82,2.46,17.74,6.69,4.99,4.3,8.14,10.38,9,16.9.5,3.83.19,7.72-.93,11.42-.14.46-.87.27-.73-.2,2.4-8,.89-17-4.18-23.67-4.91-6.45-12.82-10.31-20.9-10.38-.49,0-.49-.76,0-.75h0Z"/>
              <path class="cls-21" d="M195.29,213.91c.35-4.78-1.39-9.61-4.87-12.95-3.48-3.34-8.39-4.86-13.15-4.31-.48.06-.48-.7,0-.75,4.95-.57,10.07,1.07,13.68,4.53,3.61,3.46,5.45,8.51,5.09,13.48-.04.48-.79.49-.75,0h0Z"/>
              <path class="cls-21" d="M226.35,137.66c.74.5,1.55.92,2.43,1.24.53.19,1.06.33,1.59.43,1.43.27,2.82.21,4.16-.11l-.17-.58-.05-.19c-1.26.27-2.52.29-3.72.09-1.53-.26-2.98-.89-4.25-1.86-.48-.36-.93-.76-1.35-1.22-3.52-3.75-4.06-8.53-3.12-13.19-.25-.12-.51-.24-.77-.36-.21.98-.35,1.97-.41,2.98-.3,4.8,1.65,10.03,5.66,12.76Z"/>
              <path class="cls-21" d="M194.09,120.84c1.83,3.4,5.73,5.44,9.77,4.46,3.75-.91,6.19-4.05,6.59-7.56-.25-.09-.49-.17-.71-.25-.32,3.28-2.61,6.24-6.07,7.07-3.61.87-7.15-.92-8.85-3.95-.24.08-.48.15-.72.22Z"/>
            </g>
            <path d="M182.04,170.06c-3.03,11.88-5.03,23.95-6.62,36.1-.06.47-.82.48-.75,0,1.6-12.21,3.6-24.35,6.65-36.3.12-.47.85-.27.73.2h0Z"/>
            <path d="M233.53,203.95c-12.43,13.15-33.32,13.59-49.26,7.55-4.8-1.82-9.37-4.22-13.52-7.25-.39-.28-.01-.94.38-.65,14.23,10.36,34.26,14.52,50.79,7.39,4.14-1.79,7.96-4.3,11.07-7.58.33-.35.87.18.53.53h0Z"/>
            <path d="M223.34,129.8c.35,1.48-.5,2.88-1.8,3.58-1.74.94-3.88.4-5.66-.12-4.4-1.27-8.51-3.35-12.43-5.69-.32-.19-.03-.7.3-.51,3.17,1.89,6.46,3.61,9.94,4.86,1.7.61,3.54,1.29,5.36,1.36,1.84.07,4.26-1.11,3.74-3.33-.09-.37.48-.52.57-.16h0Z"/>
            <path d="M226.95,169.06c-11.02-2.44-22.9.88-33.47-3.89-.39-.18-.05-.75.34-.58,10.47,4.73,22.37,1.4,33.31,3.82.42.09.24.74-.18.65h0Z"/>
          </g>
          <g>
            <g>
              <path class="cls-3" d="M219.19,120.29s-3.92,13.42-16.82-.18l1.68-4.78,1.84-5.22,1.28-3.65,12.51-4.71-.48,18.53Z"/>
              <path d="M216.17,107.51c-6.36,8.5-10.62,8.28-12.12,7.82l1.84-5.22,10.29-2.6Z"/>
            </g>
            <path class="cls-3" d="M223.71,99.73c-1.68,3.58-2.94,4.65-6.29,7.85-2.99,2.86-7.49,3.83-9.69,3.66-7.98-.62-11.13-4.39-8.46-14.92,1.66-6.54.41-10.53,2.5-12.82h0c.13-.1.26-.2.4-.29,3.18-2.26,7.14-3.13,11-2.56,19.17,2.85,12.96,13.94,10.54,19.08Z"/>
            <path d="M209.73,95.87c-.1.4-.51.64-.91.54-.4-.1-.64-.51-.54-.91.1-.4.51-.64.91-.54.4.1.64.51.54.91Z"/>
            <path d="M203.61,94.84c-.1.4-.51.64-.91.54-.4-.1-.64-.51-.54-.91.1-.4.51-.64.91-.54.4.1.64.51.54.91Z"/>
            <path class="cls-11" d="M215.65,85.41s-2.53,5.95,0,7.63c2.53,1.68-1.25,4.18.51,5.57,1.76,1.39,4.65-3.05,8.49-.87,0,0,4.88-4.03,3.22-12.32,0,0-7.13,3.18-12.23,0Z"/>
            <path d="M227.88,85.41s-6.23,3.64-12.53.8-10.99,4.24-16.43,2.86c-5.44-1.38.86-9.88,10.08-10.12,9.23-.25,17.27.43,18.88,6.47Z"/>
            <path d="M206.33,95.09c-.47.62-.94,1.25-1.42,1.87-.21.28-.55.51-.26.79.23.23.66.39.94.55.33.19.03.7-.3.51-.44-.26-1.6-.64-1.44-1.34.09-.4.56-.82.8-1.14.39-.51.78-1.03,1.17-1.54.22-.3.73,0,.51.3h0Z"/>
            <path class="cls-19" d="M202.24,100.45s2.35.94,6.92.72c0,0-1.2,3.95-4.47,3.25-2.77-.6-2.45-3.96-2.45-3.96Z"/>
            <path class="cls-11" d="M203.49,106.01c.73.41,1.56.56,2.3.09.37-.24-.02-.81-.39-.57-.53.34-1.1.14-1.61-.14-.39-.22-.69.41-.3.62h0Z"/>
            <path class="cls-11" d="M213.74,99.19c-.11.57-1.07.86-2.16.66-1.09-.2-1.88-.83-1.78-1.4.11-.57,1.07-.86,2.16-.66,1.09.2,1.88.83,1.78,1.4Z"/>
            <path class="cls-11" d="M202.36,97.66c-.11.57-1.07.86-2.16.66-.51-.1-.96-.29-1.28-.52.1-.48.22-.97.35-1.48,0-.02.01-.04.01-.06.37-.08.82-.09,1.3,0,1.09.2,1.88.83,1.78,1.39Z"/>
            <path d="M209.85,92.56c.82-.15,1.83.17,2,1.1.16.86,1.54.76,1.38-.12-.3-1.63-1.85-2.66-3.49-2.36-.86.16-.76,1.53.12,1.38h0Z"/>
            <path d="M201.85,92.09c.64-.55,1.47-1.35,2.37-.94.81.37,1.41-.87.61-1.24-1.44-.65-2.67.12-3.76,1.05-.67.57.1,1.71.78,1.14h0Z"/>
            <g>
              <path class="cls-3" d="M215.7,101.34c-.21-1.46.33-2.92,1.35-3.99,1.32-1.38,3.67-3.45,5.45-2.86,2.61.87,2.49,3.31,1.78,5.69-.71,2.38-2.9,5.27-6.15,4.13-1.63-.57-2.26-1.78-2.43-2.98Z"/>
              <path d="M219.32,101.54c.03-1.02.13-2.07.66-2.97.47-.8,1.63-1.89,2.66-1.35.35.18.69-.33.34-.51-1-.52-2.11-.06-2.87.7-1.1,1.08-1.36,2.63-1.41,4.11-.01.39.6.42.61.03h0Z"/>
            </g>
          </g>
          <g>
            <path d="M196.76,92.65l8.76,1.5s-1.43,5.5-5.76,4.41c-4.4-1.11-3-5.91-3-5.91Z"/>
            <path d="M206.85,94.26l8.76,1.5s-1.43,5.5-5.76,4.41c-4.4-1.11-3-5.91-3-5.91Z"/>
            <path d="M204.85,94.95c.92-.14,1.82.11,2.54.7.19.15.45-.11.27-.27-.84-.68-1.84-.95-2.91-.79-.24.04-.14.4.1.36h0Z"/>
            <path d="M215.04,96.39c1.41-.55,2.87-.65,4.34-.27.23.06.33-.3.1-.36-1.53-.4-3.07-.31-4.54.27-.22.09-.13.45.1.36h0Z"/>
          </g>
          <path d="M190.67,121.71s5.26,12.56,1.93,32.57c-3.27,19.61-19.42,22-19.42,22l-2.94,12.92s26.31-2.02,32.64-28.72c5.46-23-1.09-41.99-1.09-41.99,0,0-7.52.12-11.13,3.22Z"/>
          <g>
            <g>
              <path d="M169.17,155.02s-2.14,4.76,5.78,8.67c7.92,3.92,11.55,2.3,11.55,2.3,0,0,3.07-8.21-4.45-11.63-7.52-3.42-11.57-1.85-12.88.66Z"/>
              <path class="cls-3" d="M174.89,143.97s-10.06,35.51-15.89,48.83-15.47,52.14-15.47,52.14l7.5.75s17.83-39.73,20.82-46.47c2.99-6.74,14.65-39.76,14.65-39.76l-11.61-15.49Z"/>
              <path class="cls-3" d="M143.53,244.94s-4.25,5.75-5.08,7.83-2.25,6.67-.92,7.67c1.33,1,8.42,2.83,9.83,2.33,1.42-.5,2.38-4.23,2.71-4.16s4.2.97,4.2.97c0,0-.33-2.22-1.66-5.02-1.33-2.8-1.58-8.88-1.58-8.88l-7.5-.75Z"/>
              <path class="cls-11" d="M150.32,258.44c.1-1.73,0-3.43-.3-5.13-.04-.24-.4-.14-.36.1.29,1.67.39,3.34.29,5.03-.01.24.36.24.38,0h0Z"/>
              <path class="cls-11" d="M161.5,187.19c2.21.93,4.28,2.1,6.21,3.52.28.21-.02.66-.3.45-1.89-1.39-3.92-2.55-6.08-3.46-.32-.13-.15-.65.17-.51h0Z"/>
            </g>
            <path class="cls-15" d="M191.92,121.5s-10.87,1.06-14.01,10.14c-3.14,9.08-8.74,23.38-8.74,23.38,3.17-5,20.49,5.97,17.33,10.97,0,0,5.16-16.52,6.87-25.1,1.84-9.25-1.45-19.39-1.45-19.39Z"/>
            <path d="M172.04,149.68c6.95-.7,13.47,3.01,16.41,9.34.2.44.85.06.65-.38-3.04-6.55-9.87-10.44-17.06-9.71-.48.05-.48.8,0,.75h0Z"/>
            <path d="M194.93,140.7c-2.8,7.98-5.4,16.03-7.8,24.14-.14.46-.87.27-.73-.2,2.39-8.11,4.99-16.16,7.8-24.14.16-.45.89-.26.73.2h0Z"/>
          </g>
          <path class="cls-19" d="M222.21,110.42s-.02,0-.03,0l-6.55-.6c-.11,0-.2-.07-.25-.17-.05-.1-.04-.21.01-.3l3.89-6.5c.06-.1.18-.16.3-.15.12.01.22.09.26.2l2.66,7.1c.04.1.02.21-.04.3-.06.08-.15.12-.25.12ZM216.18,109.24l5.56.51-2.26-6.03-3.3,5.52Z"/>
          <path d="M219.67,121.5s5.75,13.71,7.92,27.1c2.17,13.38.89,17.84.89,17.84l2.49,17.83s3.11-23.03,2.41-37.17-6.04-21.56-6.04-21.56c0,0-5.37-6.22-7.66-4.04Z"/>
          <path class="cls-19" d="M202.2,118.31c2.03,6.88,4.78,15.75,12.27,18.53,1.26.47,2.78.66,3.96-.15,1.1-.76,1.47-2.15,1.63-3.4.55-4.23.15-8.65-.71-12.81-.05-.24-.41-.14-.36.1.76,3.65,1.06,7.38.84,11.1-.1,1.6-.16,3.69-1.63,4.69-1.63,1.12-3.79.17-5.3-.72-6.17-3.65-8.43-10.98-10.33-17.44-.07-.23-.43-.13-.36.1h0Z"/>
          <path class="cls-17" d="M202.38,76.59s8.27-12.5,20.87-5.54c9.54,5.27,11,14.33,7.72,20.62,0,0-8.45-16.59-28.58-15.08Z"/>
          <path class="cls-18" d="M231.16,92.14s-8.66-17.06-28.79-15.55c0,0,1.97-2.98,5.45-5.22,3.79,1.12,7.82,2.7,11.87,4.71,4.88,2.42,9.23,5.19,12.81,8.04.2,2.67-.16,5.76-1.34,8.01Z"/>
        </g>
      </g>
      <g>
        <ellipse cx="384" cy="452.88" rx="95.11" ry="6.03"/>
        <g>
          <path class="cls-17" d="M364.65,393.28c-1.02,0-1.85-.83-1.85-1.85v-12.05h-25.95v12.05c0,1.02-.83,1.85-1.85,1.85s-1.85-.83-1.85-1.85v-13.9c0-1.02.83-1.85,1.85-1.85h29.65c1.02,0,1.85.83,1.85,1.85v13.9c0,1.02-.83,1.85-1.85,1.85Z"/>
          <rect class="cls-15" x="301.48" y="388.41" width="98.61" height="64.61" rx="3.37" ry="3.37"/>
          <rect x="323.08" y="388.41" width="6.87" height="64.61"/>
          <path class="cls-17" d="M331.31,413.59h-9.6c-.41,0-.75.34-.75.75v12.94c0,.42.33.75.75.75h9.6c.41,0,.75-.33.75-.75v-12.94c0-.41-.34-.75-.75-.75ZM325.99,421.76h4.57v4.77h-8.1v-11.44h8.1v5.29h-4.57c-.19,0-.36.08-.48.2-.12.12-.2.3-.2.49,0,.38.31.69.69.69Z"/>
          <rect x="371.19" y="388.41" width="6.87" height="64.61"/>
          <path class="cls-17" d="M379.42,413.59h-9.6c-.41,0-.75.34-.75.75v12.94c0,.42.33.75.75.75h9.6c.41,0,.75-.33.75-.75v-12.94c0-.41-.34-.75-.75-.75ZM374.1,421.76h4.57v4.77h-8.1v-11.44h8.1v5.29h-4.57c-.19,0-.36.08-.48.2-.12.12-.2.3-.2.49,0,.38.31.69.69.69Z"/>
          <path class="cls-1" d="M311.95,388.41c-.45,8.29-6.34,12.42-10.47,14.31v-10.94c0-1.86,1.51-3.37,3.37-3.37h7.11Z"/>
          <path class="cls-1" d="M311.95,453.02c-.45-8.29-6.34-12.42-10.47-14.31v10.94c0,1.86,1.51,3.37,3.37,3.37h7.11Z"/>
          <path class="cls-1" d="M389.62,388.41c.45,8.29,6.34,12.42,10.47,14.31v-10.94c0-1.86-1.51-3.37-3.37-3.37h-7.11Z"/>
          <path class="cls-1" d="M389.62,453.02c.45-8.29,6.34-12.42,10.47-14.31v10.94c0,1.86-1.51,3.37-3.37,3.37h-7.11Z"/>
        </g>
        <g>
          <g>
            <path class="cls-17" d="M449.91,138.01s15.57,10.11,11.12,24.8c-4.45,14.69-7.22,19.9.8,45.96,8.02,26.06-.98,41.7-22.78,41.22-21.8-.47-48.8-15.4-48.8-15.4v-98.73l59.66,2.15Z"/>
            <path d="M461.75,156.31c-.26,0-.48-.2-.5-.47-.45-6.93-5.85-12.28-5.9-12.33-.2-.19-.2-.51,0-.71.19-.2.51-.2.71,0,.23.23,5.73,5.68,6.2,12.98.02.28-.19.51-.47.53-.01,0-.02,0-.03,0Z"/>
            <path d="M448.7,141.12c4.62,5.1,7.11,11.94,6.75,18.83-.43,7.96-5.15,14.7-6.92,22.32-2,8.59-.24,17.56,2.61,25.74,2.57,7.35,6.18,14.65,6.54,22.56.3,6.7-1.91,13.93-7.76,17.75-.26.17-.49-.24-.24-.41,5.64-3.69,7.77-10.66,7.53-17.12-.28-7.84-3.87-15.12-6.44-22.39-2.53-7.19-4.22-14.9-3.34-22.55.86-7.51,4.99-13.9,6.8-21.14,2.05-8.2-.2-17.01-5.87-23.27-.2-.23.13-.56.34-.34h0Z"/>
            <g>
              <path class="cls-6" d="M379.52,143.82h69.99v-29.32h-69.99c-5.69,0-5.69,29.32,0,29.32Z"/>
              <path d="M447.06,114.99h-23.79c-.28,0-.5-.22-.5-.5s.22-.5.5-.5h23.79c.28,0,.5.22.5.5s-.22.5-.5.5Z"/>
              <path d="M426.99,141.6c.05,0,.1-.01.15-.04.15-.09.21-.28.12-.43-7.55-13.53,1.79-26.02,1.89-26.14.11-.14.08-.34-.06-.44-.14-.11-.34-.08-.44.06-.1.13-9.69,12.94-1.94,26.83.06.1.17.16.28.16Z"/>
              <path d="M385.34,141.6c.05,0,.1-.01.15-.04.15-.09.21-.28.12-.43-7.55-13.52,1.79-26.02,1.89-26.14.11-.14.08-.34-.06-.44-.14-.11-.34-.08-.44.06-.1.13-9.69,12.94-1.93,26.83.06.1.17.16.28.16Z"/>
              <path d="M443.32,129.16c0,8.1,2.77,14.66,6.19,14.66s6.19-6.56,6.19-14.66-2.77-14.66-6.19-14.66-6.19,6.56-6.19,14.66Z"/>
            </g>
            <g>
              <path d="M463.87,207.29s4.06,15.32.4,19.39c-3.66,4.08-11.05,1.5-13-.22-4.57-4.05-4.15-20.44-4.15-20.44l16.74,1.27Z"/>
              <path class="cls-6" d="M464.66,204.59c-.59-4.79-3.1-8.04-7.74-9.38-3.96-1.14-8.44-.58-10.36,1.38-3.91,3.98.11,12.4.11,12.4l18.54.11-.56-4.51Z"/>
            </g>
          </g>
          <g>
            <polygon class="cls-12" points="423.88 412.03 430.48 441.08 443.11 439.78 440.92 412.03 423.88 412.03"/>
            <g>
              <path class="cls-17" d="M453.32,453.02h-26.52s.89-13.8,2.12-17.09,2.81,3.29,2.81,3.29c0,0,2.48-5.13,6.79-5.42,1.68-.11,3.36.26,4.1,1.96.32-.68.78-1.34,1.31-1.15,1,.36,1.38,6.91,1.39,7.06,1.14,1.19,2.71,2.55,4.04,2.74,3.09.44,5.54,3.75,3.96,8.61Z"/>
              <path d="M435.85,439.8c1.89-2.36,5.05-2.92,7.59-1.24.34.23.02.78-.32.55-2.31-1.54-5.09-1-6.81,1.14-.26.32-.71-.13-.45-.45h0Z"/>
              <path d="M436.37,441.9c1.89-2.35,5.05-2.92,7.59-1.24.34.23.02.78-.32.55-2.31-1.54-5.09-1-6.81,1.14-.26.32-.71-.13-.45-.45h0Z"/>
              <path d="M437.49,444.4c1.63-2.29,4.45-3.06,6.8-1.3.33.24,0,.8-.32.55-2.05-1.53-4.48-.95-5.92,1.07-.24.33-.79.01-.55-.32h0Z"/>
              <path class="cls-19" d="M428.22,440.11c2.24,2.67,2.11,6.14,1.74,9.41-.05.4-.69.41-.64,0,.35-3.07.56-6.44-1.55-8.96-.26-.31.19-.77.45-.45h0Z"/>
              <path class="cls-19" d="M427.4,449.42c8.42.09,16.85.18,25.27.26.41,0,.41.65,0,.64-8.42-.09-16.85-.18-25.27-.26-.41,0-.41-.65,0-.64h0Z"/>
            </g>
            <path class="cls-8" d="M383.48,241.03s14.13,73.64,19.17,86.49c1.87,4.77,15.24,94.37,15.24,94.37l30.8-.23s-5.62-90.13-7.56-103.21c-2.99-20.25-7.33-77.85-7.33-77.85l-50.33.43Z"/>
            <path d="M415.95,249.03c-.42,5.65,1.46,11.37,5.24,15.61,3.71,4.15,9.06,6.62,14.6,6.92.41.02.41-.61,0-.63-5.38-.29-10.55-2.71-14.15-6.73-3.68-4.11-5.47-9.68-5.06-15.16.03-.41-.6-.41-.63,0h0Z"/>
            <path class="cls-22" d="M441.57,330.87c0,2.98-4.71,5.4-10.52,5.4s-10.52-2.42-10.52-5.4,4.71-5.4,10.52-5.4,10.52,2.42,10.52,5.4Z"/>
            <polygon class="cls-22" points="450.2 413.88 414.34 414.56 415.58 423.7 451.16 422.87 450.2 413.88"/>
          </g>
          <g>
            <g>
              <polygon class="cls-12" points="381.35 410.29 379.68 438.73 367.56 439.69 362.88 411.73 381.35 410.29"/>
              <path class="cls-17" d="M370.36,436.89s-1.84-2.27-4.17-1.5c-2.33.78-5.39,4.6-5.39,4.6,0,0-12.65,4.06-16.07,4.27-3.42.21-6.41,2.14-7.69,8.76h41.43s1.63-14.95,1.88-17.51c.25-2.56-3.8.64-3.8.64l-6.19.74Z"/>
              <path class="cls-19" d="M379.52,441.18c-3.13,1.77-4.94,5.3-3.37,8.75.17.37-.38.7-.55.32-1.71-3.77.14-7.67,3.6-9.62.36-.2.68.35.32.55h0Z"/>
              <path class="cls-19" d="M378.38,450.63c-10.88.11-21.76.23-32.64.34-2.49.03-4.98.05-7.47.08-.41,0-.41-.64,0-.64,10.88-.11,21.76-.23,32.64-.34,2.49-.03,4.98-.05,7.47-.08.41,0,.41.64,0,.64h0Z"/>
              <path d="M362.27,442.59c-1.44-2.02-3.88-2.6-5.92-1.07-.33.25-.65-.31-.32-.55,2.35-1.75,5.16-.99,6.8,1.3.24.34-.32.66-.55.32h0Z"/>
              <path d="M358.7,443.67c-1.44-2.02-3.88-2.6-5.92-1.07-.33.25-.65-.31-.32-.55,2.35-1.75,5.16-.99,6.8,1.3.24.34-.32.66-.55.32h0Z"/>
              <path d="M355.01,444.75c-1.44-2.02-3.88-2.6-5.92-1.07-.33.25-.65-.31-.32-.55,2.35-1.75,5.16-.99,6.8,1.3.24.34-.32.66-.55.32h0Z"/>
            </g>
            <polygon class="cls-8" points="385.04 325.3 390.22 421.77 356.12 421.77 347.65 331.26 346.75 321.67 346.86 320.77 358.21 231.12 396.15 242.04 385.04 325.3"/>
            <path d="M369.02,240.93c1.02,9.26-5.2,17.81-14.33,19.66-.4.08-.23.69.17.61,9.38-1.91,15.84-10.75,14.79-20.28-.04-.4-.68-.41-.63,0h0Z"/>
            <g class="cls-20">
              <path class="cls-22" d="M360.21,325.97c0,2.98-4.71,5.4-10.52,5.4-.7,0-1.39-.04-2.05-.1l-.9-9.6.11-.9c.9-.13,1.85-.2,2.83-.2,5.81,0,10.52,2.42,10.52,5.4Z"/>
            </g>
            <path d="M391.58,279.11c-1.89-10.39-3.77-20.78-5.66-31.16-.07-.4-.68-.23-.61.17,1.89,10.39,3.77,20.78,5.66,31.16.07.4.68.23.61-.17h0Z"/>
            <path d="M382.94,416.28c-.22,0-.41-.17-.42-.4-.05-.82-4.57-82.27-4.52-92.31.06-10.07,9.63-57.32,10.03-59.32.05-.23.27-.38.5-.33.23.05.38.27.33.5-.1.49-9.96,49.17-10.02,59.16-.06,10.02,4.47,91.44,4.52,92.26.01.23-.17.43-.4.45,0,0-.02,0-.02,0Z"/>
            <polygon class="cls-22" points="391.67 414.93 353.51 413.88 353.85 422.56 391.76 423.44 391.67 414.93"/>
          </g>
          <g>
            <path d="M436.09,185.51c-.78,18.31,5.93,42.81,1.73,60.63-1.64,6.94-81.71,7.74-83.84-11.99-.92-8.54,6.65-32.74,7.88-45.4.05-.56.1-1.18.14-1.83.34-5.58.2-14.44.29-23.42.14-13.85.83-27.98,4.67-30.75,3.4-2.45,11.59-4.85,16.94-6.24,2.91-.76,4.98-1.21,4.98-1.21,0,0,7.07-8.3,20.11,0,2.56,1.63,5.16,2.72,7.72,3.54,10.43,3.33,20.16,2.08,24.1,14.38,2.06,6.44,1.15,11.95-.41,18.42-1.41,5.84-3.35,12.46-4.13,21.26-.08.86-.13,1.73-.17,2.62Z"/>
            <path class="cls-15" d="M416.7,128.84s-7.13,12.18-8.83,39.4c-1.71,27.22,17.6,40.18,30.51,49.2,1.61-4.68,1.54-9.81-1.62-15.76,0,0-16.23-4.72-17.42-32.09-.63-14.32,9.89-37.6,9.89-37.6-4.53-2.45-8.77-3.73-12.52-3.15Z"/>
            <path d="M408.64,161.86c3.72-.34,7.41.28,10.8,1.85.44.2.82-.45.38-.65-3.52-1.62-7.32-2.3-11.18-1.95-.48.04-.48.79,0,.75h0Z"/>
            <path d="M417,129.04c4.23-.29,8.38.7,12.01,2.89.31.19.59-.3.28-.49-3.71-2.24-7.97-3.27-12.3-2.96-.36.02-.36.59,0,.56h0Z"/>
            <path d="M370.54,131.88s-31.28-1.61-35.07-8.39c-2.39-4.27-4.95-16.51-6.88-24.45-1.93-7.97-4.75-11.19-14.54-9.65-3.86.61-7.2,5.46-7.08,10.19.33,12.6,5.07,42.32,24.33,49.37,19.26,7.05,33.24,10.42,33.24,10.42,6.56-7.42,7.97-16.81,5.99-27.49Z"/>
            <g>
              <g>
                <path class="cls-12" d="M301.26,82.33c-.2,3.12,2.51,3.59,6.41,6.56,2.56,1.95,6.02,6.68,9.14,4.86,3.12-1.83,5.09-3.85,5.09-3.85,0,0,2.66-2.92,1.56-6.81,0,0-1.31-5.75-2.76-6.56-1.44-.81-3.44.88-3.44.88-1.38-.53-7.89-12.46-9.87-12.95,0,0-2.26-.45-1.35,2.51.91,2.96,4.38,8.57,4.38,8.57,0,0-7.12-8.93-9.24-8.82-.61.03-1.02.64-.81,1.53.3,1.3,1.68,2.57,2.51,3.61,1.45,1.84,3.48,4.66,4,5.61,0,0-1.81-.53-3.07.29-1.26.82-.12,2.54-.12,2.54,0,0-2.3.08-2.42,2.01Z"/>
                <path class="cls-12" d="M322.32,87.05l-.71,9.06c-1.57,2.18-2.21,3.95-8.05,2.28l-2.87-8.36,11.63-2.97Z"/>
                <path class="cls-13" d="M316.18,84.39c-.23.06-.44.1-.63.12-.6.07-1.11-.04-1.45-.31-.3-.24-.48-.59-.52-1.05-.04-.48.04-.98.25-1.51.08-.23.2-.46.29-.63.9-1.67,2.6-3.02,2.67-3.08.13-.1.32-.08.42.05.1.13.08.32-.05.42-.02.01-1.67,1.33-2.51,2.89-.08.15-.19.36-.26.56-.18.45-.25.86-.22,1.24.03.28.13.5.3.63.22.18.57.24,1.01.19.17-.02.36-.06.55-.11,1.63-.46,3.62-1.97,5.05-3.84.1-.13.29-.16.42-.06.13.1.16.29.06.42-1.53,2.01-3.59,3.56-5.37,4.06,0,0,0,0,0,0Z"/>
                <path class="cls-13" d="M308.05,87.56c-1.13.29-2.66-.47-2.86-.57-.15-.08-.21-.26-.13-.4.08-.15.26-.21.4-.13.58.3,2.22.93,2.85.31.89-.88-1.1-3.36-1.86-4.16-.11-.11-.11-.28-.01-.4.1-.12.27-.14.4-.06.74.49,2.86,1.6,3.73.83.14-.13.21-.28.2-.49-.02-1.28-2.53-3.63-3.49-4.43-.13-.11-.15-.29-.04-.42.11-.13.29-.15.42-.04.38.31,3.67,3.09,3.71,4.88,0,.38-.13.71-.4.95-.79.7-2.08.38-3.06-.04.86,1.16,1.81,2.85.85,3.81-.19.19-.43.31-.68.37Z"/>
                <path class="cls-13" d="M309.77,77.31c-.07.02-.14.01-.2-.02-.15-.07-.21-.25-.14-.4.03-.06.74-1.52,2.75-2.31.15-.07.33.02.39.17.06.15-.02.33-.17.39-1.78.69-2.43,1.99-2.43,2.01-.04.08-.11.14-.2.16Z"/>
              </g>
              <g>
                <path class="cls-13" d="M311.28,77.95s1.58,1.08,3.11,3.2c-.11.2-.21.4-.28.6-1.55-2.18-3.14-3.28-3.17-3.3-.14-.1-.17-.28-.08-.42.1-.14.28-.17.42-.08Z"/>
                <path class="cls-13" d="M317.5,90.25c0,.13-.09.26-.22.29l-.07.02c-.16,0-.29-.14-.3-.29-.06-2.37-.63-4.39-1.4-6.05.18-.02.38-.06.59-.11.77,1.7,1.33,3.74,1.4,6.15Z"/>
              </g>
            </g>
            <path class="cls-4" d="M307.4,101.05c6.48,5.01,15.78,3.78,20.73-2.74.24-.32-.3-.63-.54-.31-4.69,6.18-13.61,7.36-19.75,2.61-.31-.24-.76.2-.44.44h0Z"/>
            <path class="cls-4" d="M319.41,139.31c5.44.47,10.29,4.24,12.11,9.38.13.38.74.21.6-.17-1.91-5.43-6.98-9.35-12.71-9.84-.4-.03-.4.59,0,.62h0Z"/>
            <path class="cls-4" d="M335.8,124.58c-1.17,1.89-2.78,3.39-4.75,4.44-.35.19-.04.73.31.54,2.06-1.09,3.75-2.68,4.97-4.66.21-.34-.33-.66-.54-.31h0Z"/>
            <path class="cls-4" d="M334.06,126.96c.01,1.2.02,2.4.03,3.6,0,.4.63.4.62,0-.01-1.2-.02-2.4-.03-3.6,0-.4-.63-.4-.62,0h0Z"/>
            <path class="cls-4" d="M429.18,168.54c-.92,10.39-.87,20.84-.44,31.26.21,5.16.47,10.32.85,15.47.33,4.52.8,9.05.82,13.59.02,5.18-.56,10.42-2.75,15.16-.17.36.37.68.54.31,3.83-8.31,2.91-17.74,2.2-26.59-.83-10.39-1.34-20.85-1.34-31.27,0-5.98.21-11.97.74-17.93.04-.4-.59-.4-.62,0h0Z"/>
            <path class="cls-4" d="M379.45,149.65c2.06,4.48,8.66,4.36,12.78,4.21,5.96-.22,11.8-1.73,17.15-4.37.47-.23.06-.94-.41-.71-4.92,2.43-10.29,3.88-15.77,4.21-4.01.24-11.01.66-13.04-3.76-.22-.48-.92-.06-.71.41h0Z"/>
            <path class="cls-4" d="M408.87,226.23c0-.29-.3-.49-.57-.38-3.79,1.61-7.64,3.04-11.57,4.29-4.59,1.46-9.3,2.77-14.12,3.1-3.51.24-9.46.41-10.95-3.7-.18-.49-.97-.28-.79.22,1.2,3.33,4.98,4.22,8.16,4.36,5.26.23,10.49-.95,15.5-2.44,4.79-1.42,9.49-3.12,14.09-5.07.15-.06.25-.21.25-.38h0Z"/>
          </g>
          <g>
            <path d="M390.41,94.59s-5.95-3.41-5.11-5.81c.85-2.41,2.77-1.65,2.77-1.65,0,0-2.85-3.25-.74-5.91,1.06-1.34,3.85.05,3.85.05,0,0-.37-4.23,2.02-4.59s3.44,2.87,3.44,2.87c0,0,.93-3.48,4.43-2.87,3.49.61,3.13,3.76,3.13,3.76,0,0,4.11-2.2,6.66-.56,2.55,1.65,1.25,3.77,1.25,3.77,0,0,4.69-1.01,6.26.8,1.57,1.81-1.82,4.33-1.82,4.33,0,0,1.56.75,1.44,2.81-.12,2.06-3.31,2.04-3.31,2.04,0,0,.57,4.6-2.59,5.72-4.55,1.61-8.71-1.8-8.71-1.8l-12.98-2.96Z"/>
            <g>
              <path class="cls-12" d="M408.53,129.11s-11.44,9.48-20.54-.02l2.78-7.67,1.83-5.06,1.28-3.55,14.79-1.51c-1.16,6.67-1.11,12.54-.15,17.81Z"/>
              <path d="M404.87,116.47c-7.07,7.31-12.95,7.79-14.8,6.87l2.53-7,12.26.12Z"/>
            </g>
            <g>
              <path d="M388.19,91.59s-2.5,1.58-2.03,4.12c.48,2.54,3.2,5.28,3.2,5.28l-1.17-9.4Z"/>
              <path class="cls-12" d="M410.55,107.41c-.09.59-.21,1.12-.35,1.63-.33,1.17-.81,2.16-1.49,3.15-.9,1.3-2.14,2.61-3.84,4.33-2.67,2.7-6.55,3.32-10.15,2.83-9.56-1.3-9.53-7.93-7.38-17.66,1.34-6.04.08-9.67,1.93-11.83h0c.12-.1.24-.19.36-.28,2.85-2.16,6.46-3.07,10.01-2.66.68.08,1.34.18,1.96.3.14.02.28.05.42.08.06,0,.12.02.17.04.16.03.31.06.47.1.11.02.22.05.33.08.25.06.49.12.73.19,7.5,2.1,8.75,7.02,8.39,11.65-.25,3.15-1.25,6.16-1.55,8.07Z"/>
              <path d="M397.7,102.04c-.15.41-.61.63-1.03.47-.41-.15-.63-.61-.47-1.03.15-.41.61-.63,1.03-.47.41.15.63.61.47,1.03Z"/>
              <path d="M391.32,101.49c-.15.41-.61.63-1.03.47s-.63-.61-.47-1.03c.15-.41.61-.63,1.03-.47.41.15.63.61.47,1.03Z"/>
              <path d="M393.37,100.03l-2.29,3.49c-.12.18-.09.43.09.55.55.38,1.04.81,1.49,1.31.34.38.95-.12.61-.5-.49-.55-1.03-1.02-1.64-1.44.03.18.06.37.09.55.76-1.16,1.53-2.33,2.29-3.49.28-.42-.36-.89-.64-.47h0Z"/>
              <path class="cls-13" d="M400.65,105.14c-.08.52-.96.82-1.96.66-1-.16-1.75-.71-1.67-1.23.08-.52.96-.82,1.96-.66,1,.16,1.75.71,1.67,1.23Z"/>
              <path class="cls-13" d="M386.83,104.14c.3.27.79.5,1.37.59,1,.16,1.88-.14,1.96-.66.08-.52-.67-1.07-1.67-1.23-.55-.09-1.07-.03-1.43.12l-.24,1.19Z"/>
              <path d="M396.39,99.02c.52-.38,1.36-.56,1.8.04.27.37.74.55,1.16.3.36-.22.57-.79.3-1.16-.97-1.31-2.78-1.61-4.11-.63-.37.27-.55.74-.3,1.16.22.36.78.57,1.16.3h0Z"/>
              <path d="M389.7,98.45c.65-.37,1.25-.42,1.88.03.89.62,1.88-.75.99-1.37-1.1-.76-2.4-.85-3.57-.19-.94.53-.24,2.07.7,1.53h0Z"/>
            </g>
            <path d="M406.72,109.56c1.34.23,2.51,0,3.49-.52-.33,1.17-.81,2.16-1.49,3.15-.88-.61-1.57-1.47-1.99-2.62Z"/>
            <path d="M409.97,98.94c-3.95.44-5.34,6.86-7.11,5.44-1.77-1.41,3.48-11.42-1.56-11.92-5.05-.5-4.57.54-6.89.35-3.94-.33-3.63-2.27-5.14-2.97.12-.1.24-.19.36-.28,2.85-2.16,6.46-3.07,10.01-2.66.68.08,1.34.18,1.96.3.14.02.28.05.42.08.06,0,.12.02.17.04.16.03.31.06.47.1.11.02.22.05.33.08.25.06.49.12.73.19,7.5,2.1,8.75,7.02,8.39,11.65-.55-.34-1.26-.5-2.13-.4Z"/>
            <path class="cls-19" d="M389.91,106.96s2.27.1,6.73.33c0,0-1.02,4.68-4.22,4.16-2.71-.44-2.51-4.5-2.51-4.5Z"/>
            <path class="cls-13" d="M391.67,113.23c.68.35,1.45.47,2.11.02.34-.23-.04-.74-.37-.51-.47.32-1.01.16-1.48-.08-.36-.19-.62.39-.26.58h0Z"/>
            <path class="cls-12" d="M404.06,106.73c-.28-1.61.27-3.25,1.37-4.46,1.42-1.57,3.95-3.93,5.94-3.34,2.91.88,2.85,3.59,2.14,6.25s-3.04,5.92-6.67,4.77c-1.81-.58-2.55-1.9-2.77-3.22Z"/>
            <path class="cls-17" d="M408.46,110.19c0,.69-.56,1.26-1.26,1.26s-1.26-.56-1.26-1.26.56-1.26,1.26-1.26,1.26.56,1.26,1.26Z"/>
            <path d="M407.68,106.8c.03-1.15.14-2.35.73-3.37.53-.91,1.83-2.15,3.01-1.55.4.2.78-.38.38-.58-1.14-.58-2.39-.05-3.25.8-1.24,1.23-1.53,3-1.57,4.67-.01.45.68.48.7.03h0Z"/>
          </g>
          <g>
            <path d="M387.94,105.07c-2.03,0-3.69-1.65-3.69-3.69s1.65-3.69,3.69-3.69,3.69,1.65,3.69,3.69-1.65,3.69-3.69,3.69Z"/>
            <path d="M396.9,105.83c-2.03,0-3.69-1.65-3.69-3.69s1.65-3.69,3.69-3.69,3.69,1.65,3.69,3.69-1.65,3.69-3.69,3.69Z"/>
            <path class="cls-19" d="M407.82,99.69c-2.67.02-5.23.73-7.53,2.09-.26.15-.02.56.24.4,2.23-1.32,4.7-2.01,7.3-2.02.3,0,.3-.47,0-.47h0Z"/>
            <path class="cls-19" d="M391.55,101.76c.55-.5,1.3-.4,1.75.16.19.24.52-.1.33-.33-.61-.78-1.7-.82-2.41-.16-.22.2.11.53.33.33h0Z"/>
          </g>
          <path class="cls-19" d="M389.06,124.15c-8.29,11.93-12.36,26.63-11.56,41.13.23,4.07.84,8.1,1.83,12.05.12.47.84.27.72-.2-3.48-13.94-2.11-28.95,3.72-42.07,1.64-3.69,3.63-7.21,5.94-10.53.28-.4-.37-.77-.65-.38h0Z"/>
          <path class="cls-19" d="M408.47,125.11c1.54,17.8-3.75,35.89-14.64,50.05-.29.38.36.76.65.38,8.49-11.05,13.64-24.52,14.78-38.41.33-4,.31-8.02-.04-12.03-.04-.48-.79-.48-.75,0h0Z"/>
          <g>
            <path d="M434.92,134.63s30.4,23.36,34.15,38.41c3.75,15.05-34.09,42.83-48.54,39.63-14.45-3.2-11.52-19-6.24-23.48,5.28-4.47,21.8-13.44,21.8-13.44l-1.17-41.12Z"/>
            <g>
              <path d="M405.34,172.91l3.3,18.86c.05.26-.13.51-.39.55l-29.73,5.2c-.26.05-.51-.13-.55-.39l-3.3-18.86c-.05-.26.13-.51.39-.55l3.67-.64c.67-.12,1.11-.75,1-1.42h0c-.17-.99.49-1.94,1.48-2.11l11.74-2.05c.99-.17,1.94.49,2.11,1.48h0c.12.67.75,1.11,1.42,1l8.3-1.45c.26-.05.51.13.55.39Z"/>
              <path d="M378.89,174.68h28.87c.63,0,1.13.51,1.13,1.13v17.83c0,.63-.51,1.13-1.13,1.13h-28.87c-.63,0-1.13-.51-1.13-1.13v-17.83c0-.63.51-1.13,1.13-1.13Z" transform="translate(-25.94 70.51) rotate(-9.92)"/>
              <rect class="cls-19" x="397.12" y="172.62" width="4.57" height=".84" transform="translate(-23.84 71.39) rotate(-9.92)"/>
              <path class="cls-17" d="M402.28,173.45l3.3,18.86c.05.26-.13.51-.39.55l-29.73,5.2c-.26.05-.51-.13-.55-.39l-3.3-18.86c-.05-.26.13-.51.39-.55l3.67-.64c.67-.12,1.11-.75,1-1.42h0c-.17-.99.49-1.94,1.48-2.11l11.74-2.05c.99-.17,1.94.49,2.11,1.48h0c.12.67.75,1.11,1.42,1l8.3-1.45c.26-.05.51.13.55.39Z"/>
              <path class="cls-19" d="M386.64,175.07l-6.25,1.09c-.06.01-.12-.03-.13-.09l-.15-.84c-.01-.06.03-.12.09-.13l6.25-1.09c.06-.01.12.03.13.09l.15.84c.01.06-.03.12-.09.13Z"/>
              <rect class="cls-18" x="393.62" y="176" width="6.58" height="2.16" rx=".87" ry=".87" transform="translate(-24.57 71.01) rotate(-9.92)"/>
              <rect class="cls-18" x="376.23" y="193.63" width="2.16" height="2.16" rx=".87" ry=".87" transform="translate(-27.9 67.91) rotate(-9.92)"/>
              <rect class="cls-18" x="372.95" y="182.14" width="31.14" height="5.95" transform="translate(-26.08 69.69) rotate(-9.92)"/>
              <g>
                <path d="M393,181.07c2.37,3.23,1.67,7.76-1.56,10.13-3.23,2.37-7.76,1.67-10.13-1.56s-1.67-7.76,1.56-10.13c3.23-2.37,7.76-1.67,10.13,1.56Z"/>
                <rect x="384.72" y="178.3" width="2.64" height="14.47" transform="translate(-26.19 69.26) rotate(-9.92)"/>
                <path d="M390.89,181.44c2.37,3.23,1.67,7.76-1.56,10.13-3.23,2.37-7.76,1.67-10.13-1.56-2.37-3.23-1.67-7.76,1.56-10.13,3.23-2.37,7.76-1.67,10.13,1.56Z"/>
                <path class="cls-19" d="M388.14,189.93c-2.32,1.7-5.6,1.2-7.3-1.12-1.7-2.32-1.2-5.6,1.12-7.3,2.32-1.7,5.6-1.2,7.3,1.12s1.2,5.6-1.12,7.3Z"/>
              </g>
            </g>
            <path class="cls-12" d="M412.1,193.14s-6.05-7.23-7.74-7.78c-1.69-.55-7.64,1.33-7.04,2.83.6,1.5,5.1,1.38,5.85,2.5s-3.75,2.73-7.75,3.58-11.25,1.69-11.25,2.55,6.78,2.24,7.48,3.11c.69.88.93,2.42,6.94,3.42s15.08-2.53,15.08-2.53l-1.57-7.69Z"/>
            <path class="cls-4" d="M419.81,159.48c7.07,4.38,13.39,9.84,18.75,16.21.31.37.84-.16.53-.53-5.39-6.41-11.77-11.92-18.9-16.33-.41-.25-.79.39-.38.65h0Z"/>
            <path class="cls-4" d="M439.05,176.04c4.09.33,7.94,1.76,11.28,4.14.39.28.77-.37.38-.65-3.45-2.46-7.44-3.9-11.66-4.24-.48-.04-.48.71,0,.75h0Z"/>
            <path class="cls-4" d="M439.46,175.84c2.04-1.14,4.26-1.59,6.59-1.37.48.05.48-.7,0-.75-2.45-.24-4.82.27-6.97,1.47-.42.24-.04.88.38.65h0Z"/>
            <path class="cls-4" d="M438.56,175.78c-5.37,2.64-10.4,5.93-16.24,7.5-.47.13-.27.85.2.72,5.9-1.59,10.98-4.91,16.42-7.57.43-.21.05-.86-.38-.65h0Z"/>
          </g>
          <path class="cls-15" d="M370.85,129.59s-6.8,2.86-10.3,21.01c-3.5,18.15-.2,47.55-.2,47.55,0,0,2.33-11.14,2.83-22.05,0,0,8.77-42.46,16.5-48.44,0,0-3.18-1.27-8.82,1.93Z"/>
          <path d="M358.99,161.85c2.69-.35,5.31.18,7.64,1.57.42.25.79-.4.38-.65-2.44-1.45-5.21-2.04-8.02-1.67-.47.06-.48.81,0,.75h0Z"/>
          <path d="M375.62,128.05c1.55-.37,3.1-.46,4.67-.26.36.04.36-.52,0-.56-1.63-.2-3.23-.11-4.82.28-.35.09-.2.63.15.54h0Z"/>
        </g>
      </g>
      <g>
        <g>
          <path class="cls-4" d="M528.57,152.6s-4.03,2.69-5.11,5.78c-1.08,3.09.27,6.19,2.56,6.72,0,0-2.02,13.58-.54,17.08,1.48,3.5,6.19,0,6.19,0,0,0-1.75-24.21-3.09-29.59Z"/>
          <path class="cls-4" d="M529.78,188.38s-4.03,2.69-5.11,5.78.27,6.19,2.56,6.72c0,0-2.02,13.58-.54,17.08,1.48,3.5,6.19,0,6.19,0,0,0-1.75-24.21-3.09-29.59Z"/>
          <path d="M530.32,141.04s-4.03,2.56-1.61,29.18c2.42,26.63-4.84,46.53,6.05,57.96,10.89,11.43,41.02-10.49,41.02-10.49l-13.76-75.92-31.7-.73Z"/>
          <path class="cls-4" d="M546.47,225.42c-2.71,0-5.58-.52-7.91-2.15-2.88-2.02-4.53-6.77-5.04-14.54-.43-6.6.01-14.2.41-20.91.22-3.74.43-7.27.43-9.94,0-11.79-4.39-33.06-4.43-33.27-.05-.22.09-.43.31-.48.22-.05.43.09.48.31.04.21,4.45,21.56,4.45,33.43,0,2.7-.21,6.24-.43,9.99-.75,12.86-1.79,30.48,4.29,34.74,4.26,2.98,10.54,1.99,13.9,1.14,5.88-1.49,11.5-4.7,12.81-7.31.1-.2.34-.28.54-.18.2.1.28.34.18.54-1.42,2.84-7.15,6.17-13.33,7.73-1.69.43-4.1.89-6.65.89Z"/>
          <g>
            <path class="cls-17" d="M524.48,121.55s30.45-9.51,65.39-8.16c0,0,9.98,8.87,1.63,22.44l-60.77,10.44s-7.96-15.03-6.25-24.73Z"/>
            <path d="M545.23,116.78s13.65,6.82,9.47,25.38l4.22-.39s4.8-16.38-8.56-25.73c0,0-2.95-1.27-5.12.74Z"/>
            <path class="cls-18" d="M520.33,124.58c2.52-4.4,8.95-4.18,11.21.36,1.12,2.25,2.17,5.25,2.55,9,.94,9.33-2.85,15.65-7.97,11.29-5.12-4.36-8.56-15.63-5.87-20.5.03-.05.05-.1.08-.14Z"/>
            <path d="M528.67,144.62c-.27,0-.55-.04-.82-.13-1.95-.59-3.85-3.34-5.09-7.36-1.49-4.82-1.52-10.27-1.52-10.32,0-.23.19-.42.42-.42h0c.23,0,.42.19.42.42,0,.05.03,5.38,1.49,10.08,1.12,3.64,2.9,6.31,4.53,6.8.68.21,1.34.05,1.99-.48.96-.78,1.44-2.66,1.34-5.3-.19-5.24-2.52-11.67-4.78-13.24-.4-.28-.67-.16-.83-.05-.97.64-1.55,3.42-.74,7.3,1.15,5.48,2.8,8.65,3.38,8.87.06-.02.15-.07.24-.22.84-1.49-.61-7.52-1.24-9.25-.08-.22.03-.46.25-.54.22-.08.46.03.54.25.32.87,2.36,7.86,1.19,9.95-.25.44-.59.59-.83.64-.25.05-1,.2-2.26-2.66-.79-1.8-1.53-4.24-2.08-6.86-.95-4.51-.13-7.35,1.09-8.16.55-.36,1.19-.34,1.77.06,2.72,1.88,4.95,8.89,5.14,13.9.08,2.06-.15,4.77-1.65,5.98-.62.5-1.27.76-1.94.76Z"/>
          </g>
        </g>
        <ellipse cx="581.38" cy="452.88" rx="80.06" ry="6.03"/>
        <g>
          <g>
            <path class="cls-12" d="M626.81,157.19s17.63,32.81,20.28,32.81c2.2,0,29.69-23.23,29.69-23.23l4.22,3.09s-17.99,43.06-38.9,43.52c-16.46.36-32.89-41.2-32.89-41.2l17.59-14.98Z"/>
            <path class="cls-13" d="M646.28,189.84c-2.32,1.75-4.44,3.71-6.34,5.9-.17.2.11.48.29.29,1.88-2.16,3.97-4.11,6.26-5.83.21-.16,0-.51-.2-.35h0Z"/>
            <path class="cls-13" d="M644.2,191.56c-2.12-.35-4.23-.39-6.36-.12-.26.03-.26.44,0,.41,2.1-.27,4.17-.24,6.25.1.26.04.36-.35.11-.39h0Z"/>
            <path class="cls-15" d="M616.91,133.15s5.65,6.7,8.66,12.77c3.01,6.07,6.17,13.19,6.17,13.19l-14.92,21.42-3.75-11.29,3.84-36.09Z"/>
            <path d="M629.98,155.97c-4.08,5.21-7.62,10.81-11.7,16.02-.19.24.15.59.34.34,4.08-5.21,7.62-10.81,11.7-16.02.19-.24-.15-.59-.34-.34h0Z"/>
            <path class="cls-6" d="M668.7,127.57c-4.7-.05-8.57,3.97-8.63,8.97-.06,5,8.33,15.71,8.33,15.71,0,0,8.65-10.54,8.7-15.54.06-5-3.71-9.09-8.41-9.14ZM668.55,140.3c-2.42-.02-4.37-2-4.34-4.41.03-2.41,2.02-4.35,4.44-4.33,2.43.02,4.37,2,4.34,4.41-.03,2.41-2.02,4.35-4.45,4.33Z"/>
            <g>
              <g>
                <g>
                  <path class="cls-4" d="M655.38,176.77l1.81-12.57c.14-.98,1.06-1.9,2.05-2.03l22.68-3.07-1.81,12.57c-.14.98-1.06,1.9-2.05,2.03l-22.68,3.07Z"/>
                  <path d="M655.41,176.57l1.65-11.44c.14-.97,1.05-1.88,2.02-2.01l22.71-3.08-1.81,12.57c-.14.98-1.06,1.9-2.05,2.03l-21.53,2.92c-.58.08-1.07-.42-.99-1Z"/>
                  <path class="cls-4" d="M669.04,170.52c-1.22.29-2.09-.28-1.95-1.27.14-.99,1.25-2.03,2.47-2.32,1.22-.29,2.09.28,1.95,1.27-.14.99-1.25,2.03-2.47,2.32Z"/>
                </g>
                <path class="cls-14" d="M678.35,164.06c-.61.11-1.07-.23-1.04-.76.04-.53.56-1.05,1.17-1.17.61-.11,1.07.23,1.04.76-.04.53-.56,1.05-1.17,1.17Z"/>
              </g>
              <path class="cls-12" d="M680.6,165.96s-6.13-1.38-7.32-.28c-1.19,1.1,4.8,3.38,4.8,3.38,0,0-3.64-.72-4.72-.01-1.07.71,3.24,2.87,3.24,2.87,0,0-2.45-.38-2.77.94-.32,1.32.53,1.96,1.83,2.52,1.3.56,2.73.24,3.36-.2.63-.45.4-1.89.4-1.89,0,0,2.52-.76,2.76-1.64.23-.87-.3-1.58-.3-1.58,0,0,1.13,0,1.7-.99.57-1,.17-1.73.17-1.73,0,0,1.27-1.83,1.76-2.93.49-1.11-1.4-2.37-2.52-3.3-1.12-.93-3.77,1.23-5.89,1.34,0,0-1.15.46-.16,1.43.99.97,3.57.2,4.08.33.51.13-.41,1.74-.41,1.74Z"/>
            </g>
          </g>
          <g>
            <g>
              <polygon class="cls-12" points="529.75 404.97 519.23 426.11 527.54 431.79 542.44 413.62 529.75 404.97"/>
              <g>
                <path class="cls-8" d="M538.7,453.02h-15.1s-11.03-18.72-10.73-21.56c.06-.52.34-.65,1.46-1.73,0,0,.6-.55.6-.55.01-.02.02-.03.04-.05,1.99-2.64,4.8-6.25,6.35-8.04.37-.43,1.07-.27,1.22.28.59,2.26-.18,3.95,2.14,4.99,0,0,2.85-4.17,6.13-1.3,1.82,1.6-3.02,9.16-1.67,11.22,1.12,1.72,3.17,4.11,5.63,6.67.5.52,1.02,1.04,1.54,1.57,1.89,1.88,2.37,4.57,2.45,6.42.06,1.22-.06,2.08-.06,2.08Z"/>
                <path d="M526.07,437.29c.97-.94,2.42-1.13,3.6-.46.34.19.03.72-.31.52-.94-.53-2.09-.39-2.86.37-.28.27-.71-.16-.43-.43h0Z"/>
                <path d="M527.39,438.83c.97-.94,2.42-1.13,3.6-.46.34.19.03.72-.31.52-.94-.53-2.09-.39-2.86.37-.28.27-.71-.16-.43-.43h0Z"/>
                <path d="M528.83,440.37c.97-.94,2.42-1.13,3.6-.46.34.19.03.72-.31.52-.94-.53-2.09-.39-2.86.37-.28.27-.71-.16-.43-.43h0Z"/>
                <path class="cls-19" d="M519.48,423.53c-.06,3.24-1.19,6.27-3.28,8.75-.36.43.26,1.06.62.62,2.25-2.66,3.48-5.89,3.54-9.37,0-.57-.87-.57-.88,0h0Z"/>
                <path class="cls-19" d="M538.7,453.02h-15.77s-10.36-18.72-10.06-21.56c.06-.52.34-.65,1.46-1.73,0,0,.6-.55.6-.55.01-.02.02-.03.04-.05,2.26,7.83,6.16,15.17,10,21.81h13.79c.06,1.22-.06,2.08-.06,2.08Z"/>
              </g>
              <path d="M600.71,243.96s-9.71,81.3-12.31,93.85c-.13.62-.24,1.07-.33,1.34-.51,1.49-1.6,3.96-3.1,7.13-9.82,20.7-37.31,71.14-37.31,71.14l-28.89-11.08,32.09-70.58,1.88-93.68,47.97,1.89Z"/>
              <path class="cls-4" d="M588.4,337.81c-.13.62-.24,1.07-.33,1.34-.51,1.49-1.6,3.96-3.1,7.13-1.38-.09-2.86-.3-4.38-.64-6.53-1.48-11.33-4.86-10.72-7.55.61-2.69,6.4-3.67,12.93-2.19,2.09.47,4,1.14,5.61,1.92Z"/>
              <path class="cls-4" d="M569.26,245.76c2.31,10.35-2.47,21.09-11.73,26.26-.34.19-.65-.33-.31-.52,9.02-5.03,13.71-15.49,11.46-25.58-.08-.38.5-.54.58-.16h0Z"/>
              <path class="cls-4" d="M557.66,243.54c.06,20.37-.11,40.73-.47,61.1-.14,7.63-.3,15.25-.54,22.88-.08,2.54-.17,5.08-.29,7.62-.06,1.34,0,2.81-.27,4.13-.45,2.2-1.61,4.4-2.46,6.47-1.72,4.17-3.49,8.31-5.28,12.45-4.53,10.49-9.14,20.94-13.74,31.39-1.87,4.23-3.73,8.47-5.59,12.7-.62,1.41-1.23,2.81-1.84,4.22-.33.75-.58,1.64-.99,2.34-.03.06-.04.17-.08.22-.13.12-.41-.37-.56-.16.22-.32.75-.02.52.31-.23.34-.58.12-.57-.23,0-.15.13-.35.18-.48.35-.88.74-1.75,1.11-2.62,1.52-3.51,3.06-7,4.6-10.5,4.61-10.46,9.23-20.91,13.79-31.39,3.39-7.79,7.03-15.56,9.9-23.56.88-2.45.67-5.26.78-7.94.27-6.85.43-13.7.57-20.55.42-20.12.63-40.25.63-60.37,0-2.67,0-5.34-.01-8.01,0-.39.6-.39.61,0h0Z"/>
              <g>
                <polygon points="638.22 331.33 637.4 340 629.54 423.9 598.02 423.9 601.92 339.14 586.93 246.6 626.92 242.08 638.09 330.36 638.22 331.33"/>
                <path class="cls-4" d="M638.22,331.33l-.81,8.67c-.87.13-1.78.23-2.71.29-6.68.4-12.24-1.5-12.4-4.25-.17-2.75,5.12-5.31,11.8-5.72,1.4-.08,2.75-.07,4.01.04l.12.97Z"/>
                <path class="cls-4" d="M621.63,249.26c-.34,4.03.36,8.15,1.89,11.89,1.33,3.23,3.37,6.57,6.53,8.28.34.19.04.71-.31.52-3.16-1.7-5.24-4.98-6.62-8.19-1.67-3.91-2.46-8.26-2.1-12.51.03-.39.64-.39.61,0h0Z"/>
                <path class="cls-4" d="M598.25,248.69c.23,5.09.33,10.19.3,15.29,0,.39-.61.39-.61,0,.03-5.1-.06-10.19-.3-15.29-.02-.39.59-.39.61,0h0Z"/>
                <path class="cls-4" d="M594.11,249.13c0,2.5.02,4.99.03,7.49,0,1.09-.12,2.38.39,3.38.63,1.23,2.12,1.59,3.29.9.34-.2.64.32.31.52-2.03,1.21-4.14-.2-4.49-2.36-.23-1.44-.1-2.96-.11-4.41,0-1.84-.01-3.68-.02-5.52,0-.39.6-.39.61,0h0Z"/>
                <path class="cls-4" d="M598.51,263.11c-.38,10.36-1.46,20.68-3.24,30.89-.07.38-.65.22-.58-.16,1.77-10.16,2.85-20.43,3.22-30.73.01-.39.62-.39.61,0h0Z"/>
                <path class="cls-4" d="M597.89,275.9c2.07,10.34,3.76,20.76,5.35,31.18,1.29,8.42,2.49,16.85,3.63,25.3.22,1.62.44,3.25.65,4.88h-.61c.03-.34.31-1.24.66-.5.2.43.03,1.32.02,1.77-.04,3.59-.17,7.19-.29,10.78-.47,13.82-1.12,27.63-1.93,41.42-.56,9.49-1.19,18.98-1.95,28.46-.03.39-.64.39-.61,0,1.24-15.49,2.16-31.01,2.91-46.54.51-10.48.96-20.97,1.2-31.47.03-1.2.06-2.41.05-3.62,0-.13-.09-.58-.02-.7-.02.04.54.03.56.08,0,.01-.02.24-.03.31-.03.4-.56.38-.61,0-.61-4.72-1.26-9.43-1.92-14.14-1.41-9.98-2.9-19.95-4.56-29.89-.96-5.73-1.97-11.46-3.11-17.16-.08-.38.51-.54.58-.16h0Z"/>
                <g>
                  <polygon class="cls-12" points="607.2 417.4 608.59 440.97 618.63 441.77 622.51 418.59 607.2 417.4"/>
                  <g>
                    <path class="cls-8" d="M643.15,453.02h-38.57c-.06-.59-.08-1.19-.08-1.81,0-.27.02-.53.01-.8-.1-5.29,0-16.35,2.42-14.72,2.37,4.2,8.58,2.43,8.58,2.43,0,0,3.86-5.07,6.48-3.53,2.62,1.54-.37,4.45,3,7.06,2.58,2,5.82.85,9.64,1.58,1.17.22,2.38.62,3.65,1.34,2.97,1.68,4.14,4.04,4.61,5.84.37,1.5.26,2.61.26,2.61Z"/>
                    <path d="M625.23,442.32c-1.12-.03-2.16.45-2.83,1.37-.23.31-.75,0-.52-.31.79-1.08,2-1.7,3.35-1.67.39.01.39.62,0,.61h0Z"/>
                    <path d="M627.14,442.82c-1.12-.03-2.16.45-2.83,1.37-.23.31-.75,0-.52-.31.79-1.08,2-1.7,3.35-1.67.39.01.39.62,0,.61h0Z"/>
                    <path d="M629.39,442.95c-1.12-.03-2.16.45-2.83,1.37-.23.31-.75,0-.52-.31.79-1.08,2-1.7,3.35-1.67.39.01.39.62,0,.61h0Z"/>
                    <path class="cls-19" d="M604.98,441.27c4.2,1.91,7.42,5.42,8.92,9.79.18.53,1.03.3.85-.23-1.57-4.58-4.91-8.31-9.32-10.32-.51-.23-.96.53-.44.76h0Z"/>
                    <path class="cls-19" d="M643.15,453.02h-38.57c-.06-.59-.08-1.19-.08-1.81v-.8h38.39c.37,1.5.26,2.61.26,2.61Z"/>
                  </g>
                </g>
                <polygon class="cls-4" points="596.68 417.56 631.96 416.6 631.64 424.62 596.59 425.44 596.68 417.56"/>
              </g>
              <polygon class="cls-4" points="517.86 402.76 550.85 415.28 547.51 422.58 514.78 410.01 517.86 402.76"/>
            </g>
            <g>
              <path class="cls-15" d="M547.75,248.68c.91-8.59,3.53-36.81,3.6-66.52,0-.84-.09-1.65-.16-2.46-.73-8.25-2.55-14.46-3.87-19.93-1.47-6.06-2.32-11.23-.39-17.27,1.58-4.94,4.16-7.55,7.36-9.16.29-.14.57-.28.87-.41,4.12-1.8,9.15-2.25,14.37-3.91,2.4-.76,4.83-1.79,7.24-3.32,12.22-7.78,18.86,0,18.86,0,0,0,1.94.43,4.67,1.14,1.1.29,2.33.62,3.61.98.26.07.52.15.79.23,4.36,1.28,9.14,2.95,11.49,4.64,3.24,2.34,4.09,13.32,4.32,24.96,0,.29,0,.58.02.87.02,1,.03,2,.04,3.01.01,1.51.02,3.02.03,4.51h0c0,.33,0,.66,0,.98,0,3.76,0,7.35.05,10.51,0,.35,0,.7.02,1.04.03,1.83.09,3.49.17,4.92.04.62.08,1.19.13,1.72.54,5.62,6.86,49.45,8.6,57.22-22.34,5.1-48.81,6.16-81.81,6.26Z"/>
              <polygon class="cls-21" points="581.06 162.11 582.97 178.84 613.97 178.84 611.18 162.11 581.06 162.11"/>
              <path d="M562.66,204.86c12.3,10.6,27.91,17.2,44.06,18.79,4.48.44,8.98.48,13.47.15.4-.03.39.59,0,.62-16.28,1.22-32.82-2.75-46.84-11.09-3.94-2.34-7.66-5.03-11.13-8.02-.3-.26.14-.69.44-.44h0Z"/>
              <path d="M583.36,208.28c10.29,2.63,21.25,1.92,31.12-1.98.37-.15.53.45.16.59-9.97,3.95-21.06,4.64-31.45,1.98-.38-.1-.22-.69.16-.59h0Z"/>
              <path d="M555.58,172.73c1.91,19.11,2.2,38.38.85,57.54-.39,5.46-.91,10.91-1.56,16.35-.06.47-.8.48-.75,0,2.28-19.07,2.94-38.33,1.96-57.52-.28-5.47-.7-10.93-1.24-16.38-.05-.48.7-.48.75,0h0Z"/>
              <path d="M620.79,151.26c0,4.69-.02,9.39-.02,14.08,0,.48-.75.48-.75,0,0-4.69.02-9.39.02-14.08,0-.48.75-.48.75,0h0Z"/>
              <g>
                <g>
                  <path class="cls-12" d="M577.28,127.6c-.51.86,15.34,14.09,19.77,2.06l-1.9-7.67-1.25-5.06-.88-3.54-14.08-2.94c.44,6.53-.2,12.18-1.65,17.15Z"/>
                  <path d="M582.08,115.8c6.06,7.74,11.67,8.8,13.55,8.11l-1.73-6.99-11.81-1.12Z"/>
                </g>
                <g>
                  <path d="M583,83.39s6.81-8.03,16.95-.83c6.39,4.54,8.16,12.78,6.95,17.46-1.12,4.34-5.98,4.05-8.55,3.08-2.57-.97-19.73-13.3-19.73-13.3,0,0-2.73-6.56,4.38-6.41Z"/>
                  <path class="cls-12" d="M577.52,106.51c.03.57.09,1.1.17,1.6.2,1.16.57,2.16,1.12,3.18.73,1.35,1.8,2.73,3.26,4.56,2.3,2.86,5.97,3.86,9.48,3.75,9.33-.28,9.97-6.67,8.88-16.25-.68-5.95.9-9.31-.67-11.58h0c-.1-.1-.21-.2-.31-.3-2.52-2.37-5.91-3.61-9.37-3.57-.67,0-1.3.04-1.91.09-.14,0-.28.02-.41.03-.06,0-.11,0-.17.02-.15.01-.31.03-.46.05-.11.01-.22.02-.32.04-.25.03-.48.07-.72.11-7.43,1.26-9.13,5.87-9.25,10.36-.08,3.05.58,6.05.67,7.92Z"/>
                  <path d="M600.82,108.28s1.32,6.47.03,11.12c-1.28,4.65-7.64,7.2-15.28,2.12-4.65-3.09-4.74-12.19-4.74-12.19l2.89-5.61,2.01-.29s1.13,2.95,3.26,4.01c2.13,1.05,4.53-1.21,11.82.84Z"/>
                  <path d="M598.31,103.95c-.35.27-.86.2-1.13-.15-.27-.35-.2-.86.15-1.13.35-.27.86-.2,1.13.15.27.35.2.86-.15,1.13Z"/>
                  <path d="M591.93,103.52c-.35.27-.86.2-1.13-.15-.27-.35-.2-.86.15-1.13.35-.27.86-.2,1.13.15.27.35.2.86-.15,1.13Z"/>
                  <path class="cls-7" d="M595.63,113.76c-1.24.42-2.54.26-3.61-.5-.39-.28.05-.88.44-.6.84.6,1.88.76,2.86.43.45-.15.76.53.31.68h0Z"/>
                  <path class="cls-19" d="M597.31,109.14c-3.09-.32-6.18-.65-6.18-.65,0,0,.03,3.23,3.17,3.56,2.67.28,3.01-2.91,3.01-2.91Z"/>
                  <path d="M588.58,87.17s5.43,9.25,13.87,7.83c8.44-1.42-5.63-13.5-13.87-7.83Z"/>
                  <path class="cls-13" d="M587.28,105.33c.03.51.84.89,1.82.84s1.76-.5,1.73-1.01c-.03-.51-.84-.89-1.82-.84-.98.05-1.76.5-1.73,1.01Z"/>
                  <path class="cls-13" d="M600.68,105.76c-.32.23-.81.4-1.38.43-.98.05-1.8-.33-1.82-.84-.03-.51.75-.96,1.73-1.01.54-.03,1.03.07,1.37.26l.11,1.17Z"/>
                  <path d="M591.45,98.94c-.63-.22-1.53-.16-1.79.58-.16.45-.57.77-1.07.64-.43-.11-.81-.61-.64-1.07.57-1.6,2.29-2.44,3.92-1.87.45.16.77.57.64,1.07-.11.43-.61.8-1.07.64h0Z"/>
                  <path d="M596.25,99.46c.66-.09,1.53.14,1.64.91.07.47.41.86.92.84.44-.02.91-.45.84-.92-.25-1.68-1.78-2.84-3.48-2.59-.47.07-.86.41-.84.92.02.44.45.91.92.84h0Z"/>
                </g>
                <path d="M581,108.96c-1.31.08-2.42-.25-3.3-.85.2,1.16.57,2.16,1.12,3.18.9-.5,1.66-1.25,2.18-2.32Z"/>
                <path d="M585.23,104.38c-1.85,1.18-2.53-5.13-6.29-5.95-.82-.18-1.52-.1-2.09.17-.08,3.05.58,6.05.67,7.92.03.56.08,1.07.17,1.56-1.62-3.79-3.44-8.26-3.87-10.17-.09-.38-.14-.75-.16-1.09.08-.1.17-.2.25-.29.38-.41.8-.76,1.26-1.07.73-.48,1.55-.84,2.41-1.1,2.81-.86,5.65-.75,8-.45-.58,2.75,1.15,9.51-.36,10.48Z"/>
                <path d="M588.89,89.95s-2.54,1.06-3.12,3.11c-.58,2.04-.38,4.14-.38,4.14,0,0-6.99.26-8.39-.62-1.4-.88-.81-5.57-.81-5.57,0,0,9.83-5.11,12.39-3.84,2.57,1.28.31,2.78.31,2.78Z"/>
                <path d="M582.85,84.83s-3.2-2.01-6.66.93c-3.45,2.94-3.21,8.21-2.53,11.04s10.91-2.57,9.19-11.97Z"/>
                <path class="cls-12" d="M583.84,106.51c.43-1.52.07-3.15-.86-4.43-1.21-1.66-3.41-4.18-5.37-3.81-2.89.55-3.11,3.17-2.69,5.8.42,2.63,2.33,6.01,5.93,5.27,1.8-.37,2.64-1.58,2.99-2.82Z"/>
                <path d="M580.35,106.22c.09-1.11.1-2.28-.36-3.32-.42-.93-1.55-2.25-2.74-1.79-.4.15-.71-.44-.31-.6,1.15-.44,2.31.19,3.05,1.1,1.07,1.31,1.17,3.04,1.04,4.66-.03.43-.71.39-.67-.04h0Z"/>
                <g>
                  <path class="cls-19" d="M595.17,104.33c-.59-2.15.69-4.38,2.84-4.97,2.15-.59,4.38.69,4.97,2.84.59,2.15-.69,4.38-2.84,4.97-2.15.59-4.38-.69-4.97-2.84ZM595.74,104.18c.5,1.84,2.4,2.93,4.24,2.43,1.84-.5,2.93-2.4,2.43-4.24-.5-1.84-2.4-2.93-4.24-2.43-1.84.5-2.93,2.4-2.43,4.24Z"/>
                  <path d="M594.36,102.26c-.16,1.27,1.72,1.77,1.48,3.17-.16.93-1.04,1.44-1.94,1.27-.45-.09-.38-.8.07-.71.67.13,1.22-.28,1.14-.97-.05-.47-.45-.78-.75-1.11-.47-.5-.8-1.03-.71-1.73.06-.45.76-.38.71.07h0Z"/>
                  <path class="cls-19" d="M585.56,104.08c-.59-2.15.69-4.38,2.84-4.97,2.15-.59,4.38.69,4.97,2.84s-.69,4.38-2.84,4.97c-2.15.59-4.38-.69-4.97-2.84ZM586.13,103.92c.5,1.84,2.4,2.93,4.24,2.43,1.84-.5,2.93-2.4,2.43-4.24-.5-1.84-2.4-2.93-4.24-2.43s-2.93,2.4-2.43,4.24Z"/>
                  <path class="cls-19" d="M595.15,102.65c-.45-.49-1.1-.55-1.63-.15-.28.2-.55-.26-.27-.46.71-.53,1.68-.43,2.28.23.23.25-.14.64-.37.38h0Z"/>
                  <path class="cls-19" d="M585.4,102.05c-.96-1.22-2.36-1.95-3.91-2-.34-.01-.34-.55,0-.53,1.68.06,3.24.83,4.28,2.16.21.27-.16.65-.37.38h0Z"/>
                </g>
              </g>
              <path class="cls-17" d="M576.82,125.61c1.53,7.2,5.89,15.03,13.71,16.67,3.21.67,6.29-.45,7.3-3.77.63-2.05.39-4.36.13-6.46-.27-2.23-.75-4.43-1.41-6.57-.14-.46-.87-.26-.72.2,1.1,3.56,2.04,7.69,1.52,11.43-.26,1.88-1.17,3.69-3.06,4.35-1.63.57-3.45.23-5.04-.32-6.74-2.35-10.31-9.15-11.7-15.73-.1-.47-.82-.27-.72.2h0Z"/>
            </g>
          </g>
          <g>
            <g>
              <g>
                <rect x="504.03" y="302.62" width="92.25" height="61.41"/>
                <rect class="cls-17" x="496.78" y="302.62" width="92.25" height="61.41"/>
                <path d="M579.23,354.23h-73.03v-41.8h73.03v41.8ZM506.75,353.67h71.92v-40.69h-71.92v40.69Z"/>
                <rect x="500.8" y="306.57" width=".56" height="52.34"/>
                <rect x="584.16" y="306.57" width=".56" height="52.34"/>
                <path d="M506.86,302.62c0,5.57-4.51,10.08-10.08,10.08v-10.08h10.08Z"/>
                <path d="M589.03,302.62v10.08c-5.57,0-10.08-4.51-10.08-10.08h10.08Z"/>
                <path d="M589.03,353.95v10.08h-10.08c0-5.57,4.51-10.08,10.08-10.08Z"/>
                <path d="M506.86,364.03h-10.08v-10.08c5.57,0,10.08,4.51,10.08,10.08Z"/>
              </g>
              <rect x="517.38" y="302.62" width="8.47" height="61.41"/>
              <path class="cls-2" d="M520.78,315.65h1.66c1.88,0,3.41,1.53,3.41,3.41v44.98h-8.47v-44.98c0-1.88,1.53-3.4,3.4-3.4Z"/>
              <circle cx="521.54" cy="340.54" r="1.17"/>
              <circle cx="521.54" cy="347.25" r="1.17"/>
              <circle cx="521.54" cy="353.95" r="1.17"/>
              <rect x="558.44" y="302.62" width="8.47" height="61.41"/>
              <path class="cls-2" d="M561.84,315.65h1.66c1.88,0,3.41,1.53,3.41,3.41v44.98h-8.47v-44.98c0-1.88,1.53-3.41,3.41-3.41Z"/>
              <circle cx="562.67" cy="340.54" r="1.17"/>
              <circle cx="562.67" cy="347.25" r="1.17"/>
              <circle cx="562.67" cy="353.95" r="1.17"/>
              <path d="M526.4,336.07h-9.58v-5.55h9.58v5.55ZM517.93,334.96h7.36v-3.33h-7.36v3.33Z"/>
              <path d="M567.46,336.07h-9.58v-5.55h9.58v5.55ZM558.99,334.96h7.36v-3.33h-7.36v3.33Z"/>
              <g>
                <path d="M529.44,302.62h-2.59v-8.27c0-3.06,2.49-5.56,5.56-5.56h17.48c3.06,0,5.56,2.49,5.56,5.56v8.27h-2.59v-8.27c0-1.64-1.33-2.97-2.97-2.97h-17.48c-1.64,0-2.97,1.33-2.97,2.97v8.27Z"/>
                <path class="cls-2" d="M550.16,292.05v-4.05c0-.73-.59-1.32-1.32-1.32h-15.37c-.73,0-1.32.59-1.32,1.32v4.05h18.01Z"/>
              </g>
            </g>
            <path d="M528.82,171.47s-2.25,6.48,12.87,11.91c15.12,5.43,19.25.26,19.25.26,0,0,1.49-11.45-12.5-14.61-14-3.17-16.83-1.94-19.62,2.45Z"/>
            <path class="cls-12" d="M537.62,160.88s-17.61,34.87-17.69,51.78c-.05,10.16,12.89,63.01,12.89,63.01l12.06-.8s-2.2-50.26-2.44-57.11c-.32-9.41,21.02-44.65,21.02-44.65l-25.84-12.24Z"/>
            <path class="cls-13" d="M542.49,215.4c-2.31-2.44-5.27-4.07-8.57-4.7-.47-.09-.67.63-.2.72,3.18.61,6.01,2.15,8.24,4.5.33.35.86-.18.53-.53h0Z"/>
            <path class="cls-13" d="M540.81,213.88c-.45-1.64-1.17-3.16-2.14-4.55-.28-.39-.93-.02-.65.38.94,1.34,1.63,2.79,2.07,4.37.13.46.85.27.72-.2h0Z"/>
            <path class="cls-15" d="M549.16,137.79s-11.84,10.05-20.34,33.68c2.41-6.36,34.53,5.81,32.12,12.17,0,0,10.27-16.9,6.14-33.41s-15.27-15.6-17.92-12.44Z"/>
            <path d="M532.13,164.39c12.44-.3,24.58,5.01,32.52,14.65.23.28.63-.12.4-.4-8.02-9.74-20.34-15.12-32.92-14.82-.36,0-.36.57,0,.56h0Z"/>
            <path d="M561.84,184.01c5.01-6.55,9.14-13.7,12.33-21.31.14-.33-.4-.48-.54-.15-3.16,7.56-7.29,14.67-12.27,21.18-.22.29.27.57.49.28h0Z"/>
            <path d="M556.37,133.21c6.61.53,12.58,4.63,15.5,10.58.16.32.64.04.49-.28-3.01-6.13-9.18-10.31-15.99-10.86-.36-.03-.36.53,0,.56h0Z"/>
            <g>
              <path class="cls-12" d="M533.37,273.41s-1.82,8.48-2.17,11.4c-.35,2.93-.6,9.23,1.43,10.04,2.03.82,11.65.75,13.27-.37s1.59-6.18,2.03-6.2c.44-.01,2.23.12,2.23.12,0,0,2.27-3.01-.37-6.11-2.64-3.1-5.02-10.74-5.02-10.74l-11.4,1.85Z"/>
              <path class="cls-13" d="M547.89,288.1c-.46-2.22-1.17-4.35-2.12-6.41-.13-.29-.56-.04-.43.25.94,2.02,1.62,4.11,2.07,6.29.06.31.54.18.48-.13h0Z"/>
            </g>
          </g>
        </g>
        <path d="M551.07,198.53s28.92-9.74,42.8-35.75c11.45-21.46,6.42-35.94,6.42-35.94,0,0,8.25.3,12.3,3.95,0,0,5.97,21.41-11.87,48.05-16.61,24.81-50.34,37.2-50.34,37.2,0,0,.17-13.24.7-17.51Z"/>
        <path class="cls-17" d="M596.28,157.87c4.7.67,8.87,3.04,12.04,6.55.32.36.85-.17.53-.53-3.24-3.59-7.56-6.05-12.37-6.74-.47-.07-.68.66-.2.72h0Z"/>
        <path class="cls-17" d="M586.52,174.62c4.7.67,8.87,3.04,12.04,6.55.32.36.85-.17.53-.53-3.24-3.59-7.56-6.05-12.37-6.74-.47-.07-.68.65-.2.72h0Z"/>
      </g>
      <g>
        <path class="cls-17" d="M329.29,227.39c-5.86.76-6.9,1.96-7.48,9.57-.02.26-.39.26-.41,0-.58-7.61-1.63-8.81-7.48-9.57-.24-.03-.24-.38,0-.41,5.86-.76,6.9-1.96,7.48-9.57.02-.26.39-.26.41,0,.58,7.61,1.63,8.81,7.48,9.57.24.03.24.38,0,.41Z"/>
        <path class="cls-17" d="M144.68,84.31c-5.86.76-6.9,1.96-7.48,9.57-.02.26-.39.26-.41,0-.58-7.61-1.63-8.81-7.48-9.57-.24-.03-.24-.38,0-.41,5.86-.76,6.9-1.96,7.48-9.57.02-.26.39-.26.41,0,.58,7.61,1.63,8.81,7.48,9.57.24.03.24.38,0,.41Z"/>
        <path class="cls-17" d="M536.76,85.86c-5.86.76-6.9,1.96-7.48,9.57-.02.26-.39.26-.41,0-.58-7.61-1.63-8.81-7.48-9.57-.24-.03-.24-.38,0-.41,5.86-.76,6.9-1.96,7.48-9.57.02-.26.39-.26.41,0,.58,7.61,1.63,8.81,7.48,9.57.24.03.24.38,0,.41Z"/>
        <path class="cls-17" d="M676.29,253.38c-5.86.76-6.9,1.96-7.48,9.57-.02.26-.39.26-.41,0-.58-7.61-1.63-8.81-7.48-9.57-.24-.03-.24-.38,0-.41,5.86-.76,6.9-1.96,7.48-9.57.02-.26.39-.26.41,0,.58,7.61,1.63,8.81,7.48,9.57.24.03.24.38,0,.41Z"/>
        <path class="cls-8" d="M116.02,190.2c-2.72,0-4.93-2.21-4.93-4.93s2.21-4.93,4.93-4.93,4.93,2.21,4.93,4.93-2.21,4.93-4.93,4.93ZM116.02,181.33c-2.17,0-3.93,1.76-3.93,3.93s1.76,3.93,3.93,3.93,3.93-1.76,3.93-3.93-1.76-3.93-3.93-3.93Z"/>
        <path class="cls-6" d="M362.56,94.27c-2.72,0-4.93-2.21-4.93-4.93s2.21-4.93,4.93-4.93,4.93,2.21,4.93,4.93-2.21,4.93-4.93,4.93ZM362.56,85.41c-2.17,0-3.93,1.76-3.93,3.93s1.76,3.93,3.93,3.93,3.93-1.76,3.93-3.93-1.76-3.93-3.93-3.93Z"/>
        <path class="cls-15" d="M496.78,219.76c-2.72,0-4.93-2.21-4.93-4.93s2.21-4.93,4.93-4.93,4.93,2.21,4.93,4.93-2.21,4.93-4.93,4.93ZM496.78,210.9c-2.17,0-3.93,1.76-3.93,3.93s1.76,3.93,3.93,3.93,3.93-1.76,3.93-3.93-1.76-3.93-3.93-3.93Z"/>
      </g>
    </g>
  </g>
</svg>
